<?xml version="1.0" standalone="no"?>
<!-- Generator: Paintmaps.com , Online SVG vector map maker -->
<svg xmlns="http://www.w3.org/2000/svg" version="1.1" baseProfile="full" width="850" height="567" style="background-color:false">
<path d="M 498.1527 58.0659 L 498.0719 58.456 L 497.6622 58.508 L 496.7777 58.2087 L 498.5661 60.6176 L 499.1264 61.2232 L 500.0853 61.8857 L 501.0162 62.4518 L 501.4498 62.8139 L 501.7577 63.4687 L 501.4967 63.8978 L 501.2485 65.0917 L 501.3693 66.2864 L 501.9597 67.4239 L 502.4789 68.3017 L 504.9586 71.7458 L 506.1382 72.9765 L 507.0324 74.2884 L 507.4991 75.0667 L 507.3488 76.2568 L 506.2357 77.5194 L 504.7519 79.0046 L 504.0007 80.6069 L 504.08 81.9793 L 504.5224 83.0217 L 505.0528 83.9401 L 506.4443 84.8108 L 507.1092 85.6304 L 506.6631 86.5968 L 505.6072 87.4547 L 505.1441 88.1168 L 504.8814 89.0486 L 505.4377 89.9072 L 507.025 91.0613 L 508.8748 91.8088 L 511.3675 92.3881 L 512.4263 94.3182 L 513.8596 95.5573 L 514.3701 96.7432 L 514.4365 97.7809 L 514.4751 97.9737 L 517.18 98.1938 L 514.549 106.7246 L 514.9672 106.9137 L 515.5767 107.07 L 516.6714 107.664 L 518.0291 108.0983 L 518.9779 107.8597 L 519.6322 107.0933 L 520.3107 106.3036 L 520.9119 105.7965 L 521.1601 105.2574 L 521.3831 104.7888 L 522.0463 104.6621 L 522.7956 104.8928 L 523.1207 105.1135 L 523.5926 105.1008 L 523.8836 104.7523 L 524.1877 103.8355 L 524.4885 103.0608 L 525.2075 102.5564 L 525.9442 102.3129 L 526.8996 102.8089 L 527.3135 103.2686 L 527.7981 103.73 L 528.4156 103.929 L 529.3616 103.8089 L 530.2594 103.735 L 530.9567 104.1776 L 531.1354 104.6082 L 531.3356 105.134 L 531.87 105.478 L 532.8648 105.288 L 535.0523 104.5099 L 536.4477 104.3292 L 537.852 103.7697 L 538.5168 103.572 L 539.7868 103.72 L 541.2914 103.9209 L 543.2942 104.3012 L 543.7174 104.3585 L 544.3049 104.4432 L 545.0756 104.7691 L 545.4445 105.1331 L 545.4403 106.3411 L 545.5801 107.434 L 545.3516 108.1393 L 545.2173 109.7016 L 547.5425 109.8972 L 550.0478 110.5843 L 551.0913 111.0586 L 553.1263 111.9022 L 554.4307 112.482 L 554.6093 113.2246 L 554.48 113.9513 L 554.0597 115.2623 L 553.8487 116.3113 L 554.3695 117.0469 L 555.465 117.6263 L 555.9863 118.0996 L 557.0293 118.7838 L 557.5498 119.6769 L 557.601 120.2017 L 557.5992 121.0937 L 556.7614 122.2464 L 556.0281 123.3994 L 555.3992 124.5 L 555.3448 125.6018 L 555.9693 126.705 L 557.5324 128.4921 L 558.6782 130.0161 L 559.614 132.1169 L 560.2101 134.2239 L 562.2795 134.5487 L 564.122 134.8526 L 564.9689 134.8543 L 565.3212 134.9196 L 566.3631 135.2111 L 567.0602 135.828 L 567.2728 136.4296 L 568.0987 137.5105 L 569.5622 138.1987 L 570.6448 138.725 L 571.3864 139.2103 L 571.7058 140.0373 L 571.7026 141.6103 L 572.0425 142.256 L 572.4073 144.1627 L 572.9718 144.8032 L 574.0585 145.5251 L 574.4695 145.8178 L 574.6262 145.9072 L 574.5518 146.3153 L 574.739 160.9303 L 575.1688 161.5565 L 574.7145 162.1481 L 573.9442 163.1904 L 573.22 163.8244 L 571.8618 165.1832 L 569.506 168.2663 L 568.8709 169.5358 L 568.3265 170.6694 L 567.7364 171.9845 L 568.0925 172.8703 L 568.6379 173.3592 L 569.9716 174.2765 L 570.4553 175.1922 L 570.5145 175.985 L 571.0594 176.6569 L 571.3009 177.3281 L 572.028 178.0003 L 572.0766 178.0389 L 572.7643 182.1876 L 572.3216 182.9401 L 571.1655 184.3452 L 571.1628 185.6867 L 571.4628 187.4556 L 571.6387 190.5659 L 572.0021 190.9325 L 572.6086 191.1776 L 573.5188 191.3624 L 573.579 191.6064 L 573.3953 192.3987 L 573.3929 193.6183 L 573.6349 193.9847 L 574.0599 193.9245 L 574.6674 193.6819 L 574.97 194.1703 L 575.2709 195.4544 L 575.2678 196.9788 L 575.3242 199.1132 L 575.1407 199.8445 L 574.9566 200.8198 L 574.5908 201.6118 L 574.6496 202.5875 L 575.0727 203.4421 L 575.8602 204.2364 L 576.1002 205.6403 L 576.7047 206.8611 L 578.0943 210.0977 L 577.6556 211.4175 L 576.9203 211.8207 L 576.4362 212.6503 L 576.0797 213.9967 L 575.8135 215.4503 L 575.5402 217.2192 L 574.9944 218.7014 L 573.4679 219.8487 L 573.4372 221.444 L 572.1059 222.721 L 571.4812 223.594 L 571.2252 224.6157 L 570.8265 225.7743 L 569.5677 227.6459 L 569.7452 229.9649 L 569.8633 231.6116 L 570.6482 233.6864 L 571.1916 235.09 L 571.6138 236.4324 L 573.0395 238.7107 L 573.272 240.7249 L 572.9045 242.5382 L 572.5037 243.7902 L 572.4344 244.7696 L 572.5458 245.9868 L 572.7511 247.1595 L 573.1315 248.8036 L 573.254 249.9619 L 574.0505 250.9195 L 574.0497 251.3118 L 573.8743 252.227 L 574.4347 254.0592 L 574.9525 255.5425 L 575.5574 256.8517 L 576.5933 259.5568 L 576.849 261.0015 L 576.9908 262.0911 L 576.0681 262.4278 L 575.5966 263.0086 L 574.9359 263.289 L 574.5047 263.5419 L 573.8561 264.1912 L 573.3087 264.4414 L 573.0674 264.7075 L 572.9478 264.8519 L 572.3391 265.3991 L 572.4535 265.666 L 572.6611 265.8178 L 573.0775 265.5592 L 573.516 265.5622 L 574.1683 265.7581 L 574.6549 266.3213 L 574.4305 267.1453 L 574.0194 268.3049 L 573.8893 268.8164 L 573.1608 268.9141 L 572.1406 269.0674 L 571.8377 269.7195 L 571.6776 270.7074 L 571.9389 272.974 L 571.9721 274.2963 L 571.3922 274.3399 L 570.3027 273.7959 L 568.4897 273.4448 L 566.9489 273.9107 L 565.7364 274.6803 L 564.3857 275.5706 L 564.2757 275.5985 L 562.8527 275.6354 L 560.8755 276.0286 L 559.8081 276.1456 L 558.7399 276.6598 L 557.7901 277.214 L 557.1162 278.2452 L 556.0865 279.2758 L 555.0222 279.7109 L 553.3514 280.4265 L 551.8011 280.5033 L 550.37 280.5404 L 549.4158 280.6983 L 548.5406 281.096 L 547.7456 281.0722 L 547.1492 281.196 L 546.664 281.5814 L 545.8326 281.8874 L 544.9191 281.9253 L 543.9686 282.2878 L 543.0824 282.415 L 542.3146 282.5155 L 541.6138 282.2624 L 540.2109 281.8155 L 539.0923 281.7415 L 536.838 281.5911 L 535.9889 281.4187 L 534.1769 281.4152 L 531.8679 281.4268 L 530.3415 281.5478 L 528.4145 281.7388 L 527.5633 282.1567 L 527.328 281.6218 L 527.0331 280.9466 L 526.9994 280.6248 L 526.2332 280.6783 L 525.4794 280.7376 L 525.0296 280.601 L 524.6879 280.4014 L 524.2213 279.6316 L 523.808 279.2509 L 522.9713 279.0322 L 522.089 279.121 L 518.968 279.8484 L 518.3552 280.2452 L 516.8857 281.4907 L 516.3643 281.9355 L 515.6002 282.5272 L 513.2367 283.7237 L 512.6603 284.0264 L 512.1379 284.7706 L 511.9295 285.2355 L 511.6649 285.8528 L 511.2886 286.4297 L 511.7174 286.6308 L 511.9898 287.1006 L 512.0906 287.6638 L 512.064 288.2524 L 511.954 288.5835 L 511.879 288.9646 L 511.8868 289.3475 L 510.7368 289.5915 L 509.7853 289.9189 L 509.1177 290.8686 L 508.7991 292.3669 L 508.3893 293.6223 L 507.3014 295.4658 L 505.7405 297.0938 L 503.6518 299.605 L 501.5272 300.864 L 500.2563 301.644 L 497.3339 302.8953 L 496.1437 302.5799 L 494.5557 302.369 L 492.6044 302.3986 L 492.2323 302.5193 L 491.5519 304.1898 L 491.6885 304.5852 L 491.9127 305.0935 L 492.6604 305.5849 L 493.3057 307.5279 L 494.5006 310.6716 L 494.465 310.8695 L 491.1855 314.7416 L 488.3225 318.0799 L 484.3124 322.7805 L 480.3508 327.5443 L 480.2017 327.552 L 480.3588 329.0837 L 480.3719 329.2326 L 480.8629 335.07 L 481.04 336.1133 L 481.1463 337.7972 L 481.1534 337.8981 L 481.2122 338.5582 L 481.6364 342.8452 L 485.4262 342.5198 L 489.1435 342.3195 L 492.979 341.9725 L 496.845 341.7745 L 500.6361 341.4739 L 504.4618 341.2141 L 503.7905 336.1747 L 503.9096 336.1603 L 505.2282 339.7998 L 506.6085 343.563 L 507.638 346.451 L 508.6924 349.3486 L 509.5059 351.5391 L 510.177 353.4091 L 510.873 355.2887 L 512.0274 358.1217 L 512.3137 358.2012 L 512.4271 358.4222 L 515.5912 360.6112 L 518.124 363.9745 L 523.2211 371.2291 L 524.5377 373.1195 L 525.4072 378.6634 L 525.6273 378.9622 L 528.2459 379.2383 L 535.5303 379.9635 L 539.6566 380.3993 L 527.2317 386.5343 L 520.8991 389.5346 L 517.1328 391.3029 L 508.2784 395.5677 L 501.97 395.8963 L 498.035 395.8445 L 491.9057 395.8332 L 483.0882 395.5651 L 472.3167 395.1613 L 465.9852 395.1315 L 461.178 395.1074 L 461.4301 394.5982 L 461.5622 394.1945 L 460.8463 394.8015 L 460.9723 392.9185 L 459.0857 393.2024 L 457.7368 392.6155 L 456.4822 393.7265 L 456.3056 393.8829 L 454.6589 395.5641 L 443.25 395.0194 L 436.0762 395.1887 L 436.2186 400.2238 L 435.9346 400.3001 L 433.8598 400.571 L 434.0389 404.4259 L 434.0783 406.314 L 437.2147 406.885 L 437.7502 408.8685 L 437.6061 409.1411 L 427.5667 413.6187 L 426.9222 412.4405 L 425.3211 409.3796 L 423.9643 406.8752 L 422.7365 404.4728 L 422.0707 404.656 L 417.7937 404.0375 L 417.71 404.0254 L 411.8966 403.182 L 411.0957 406.4427 L 409.7513 411.917 L 409.105 414.5488 L 409.0405 414.8113 L 408.8911 415.4167 L 408.2654 417.9678 L 407.5813 420.7531 L 407.0351 422.9777 L 406.917 423.4585 L 406.6751 424.4433 L 415.7739 426.4077 L 416.0782 426.4733 L 421.0975 427.5548 L 421.1851 427.5737 L 424.8873 428.3565 L 423.8614 433.3082 L 416.9502 431.9375 L 419.2042 446.6358 L 409.2767 442.1621 L 405.2945 441.2518 L 402.7821 441.0575 L 402.8065 441.621 L 408.0513 446.8781 L 413.2445 452.0587 L 418.6078 457.3123 L 418.7471 457.4595 L 421.4464 460.2519 L 427.9403 466.876 L 431.7188 470.8846 L 433.7524 472.8309 L 435.5537 474.6349 L 436.5249 475.8038 L 427.8157 474.2991 L 427.3355 479.503 L 427.2635 479.792 L 426.8407 479.4313 L 425.3333 478.7382 L 423.4022 477.8923 L 423.3349 477.7886 L 423.731 473.6014 L 408.2683 470.8424 L 407.5453 470.7161 L 404.3367 470.1333 L 403.0287 479.5949 L 403.1037 479.7253 L 401.7134 487.1873 L 401.6867 487.3071 L 400.2276 487.1483 L 398.3425 498.2054 L 398.3369 498.2536 L 397.9679 498.25 L 395.729 510.1441 L 395.6952 510.2996 L 395.2724 510.1707 L 393.9189 509.7091 L 389.9101 508.5467 L 385.9095 507.3463 L 381.4767 506.2253 L 377.93 505.364 L 374.7686 504.893 L 369.6544 504.3912 L 368.8498 504.2327 L 368.4625 503.2002 L 367.1814 503.0354 L 363.8795 502.6684 L 363.1651 502.6131 L 361.791 502.9716 L 360.6835 503.2912 L 360.289 503.3351 L 351.6851 502.3912 L 349.7075 502.1988 L 343.8189 501.535 L 325.2278 499.3949 L 322.2383 499.101 L 321.1102 498.9738 L 320.6802 498.8607 L 317.1909 498.5196 L 309.5265 497.6576 L 299.9904 496.624 L 287.8517 495.2922 L 296.8182 486.5532 L 297.2961 486.1198 L 297.4233 485.7475 L 297.9926 483.7942 L 298.6482 481.5419 L 299.0492 480.0964 L 299.4908 478.5941 L 299.8005 477.0307 L 300.077 475.326 L 300.3798 473.3484 L 300.7518 471.2944 L 301.5803 465.5245 L 301.8674 463.5141 L 302.0593 462.0557 L 302.3268 460.2691 L 303.1163 458.1157 L 303.418 457.007 L 303.1807 457.0747 L 300.836 457.4171 L 300.7712 457.4203 L 299.9527 450.8608 L 299.1552 444.3262 L 303.8313 437.4642 L 308.2895 430.6554 L 308.5795 430.6537 L 311.9439 425.6747 L 312.0839 425.5998 L 312.8267 431.948 L 315.6218 427.0041 L 317.2687 424.0374 L 319.6499 419.7879 L 319.8579 419.4555 L 323.656 412.8415 L 320.4393 410.9573 L 318.902 410.0167 L 318.6606 409.821 L 318.4646 409.6807 L 318.0667 409.4451 L 317.2227 408.9593 L 316.7798 408.7031 L 313.4315 406.8927 L 310.2275 404.8452 L 306.9585 402.972 L 303.684 401.0441 L 300.4658 399.0732 L 297.2652 397.1795 L 294.4468 395.4967 L 293.8585 395.153 L 291.2582 393.63 L 290.8385 393.3509 L 288.1007 391.8036 L 287.4471 391.4384 L 284.9217 390.0626 L 284.1275 389.516 L 284.8592 388.1867 L 281.9416 386.6393 L 282.8317 381.6961 L 283.2453 379.4192 L 284.0624 374.8012 L 284.7378 371.0346 L 285.4095 367.4951 L 286.0066 364.1783 L 275.7911 358.0488 L 275.6378 357.9484 L 278.0364 351.2963 L 279.9207 345.9685 L 283.6817 335.603 L 284.0342 334.6683 L 285.7039 331.1981 L 288.751 325.1029 L 288.8832 325.2487 L 289.8105 323.4289 L 290.3923 322.2344 L 290.6854 321.6604 L 291.7519 319.5711 L 293.2174 316.7631 L 297.1982 308.4521 L 297.2035 308.2184 L 294.4492 306.6164 L 291.0279 304.5889 L 290.1449 304.1032 L 289.2817 303.5923 L 288.3633 303.0477 L 288.1754 302.9363 L 287.987 302.8269 L 287.8713 302.7598 L 285.8143 301.5074 L 282.8066 299.7593 L 281.0439 298.7669 L 280.0671 298.2322 L 281.2651 296.0417 L 278.9388 294.6702 L 274.2862 291.9272 L 271.9599 290.5557 L 272.3049 290.1599 L 272.5695 289.8562 L 272.7236 289.6794 L 272.9046 289.466 L 274.0265 288.1439 L 275.4582 286.4567 L 275.5796 286.3154 L 275.8417 286.0106 L 276.2511 285.5459 L 277.8538 283.7743 L 278.5877 283.0405 L 278.8025 282.758 L 279.5414 281.9757 L 279.7294 281.6527 L 279.9349 281.4582 L 280.1239 281.2793 L 281.5749 279.1531 L 282.0194 278.538 L 282.479 277.9021 L 283.0531 277.0336 L 284.0094 275.6005 L 285.5484 273.3346 L 285.8274 272.9073 L 287.8218 269.7984 L 287.9838 269.529 L 288.363 268.9198 L 288.9803 268.0259 L 289.3635 267.4712 L 289.5343 267.2119 L 289.5344 267.2117 L 290.2216 266.1684 L 290.9019 265.181 L 293.405 260.8841 L 295.1155 257.7494 L 295.3988 257.1905 L 297.3096 257.9593 L 300.2474 258.9691 L 301.5328 259.4429 L 303.757 260.1861 L 305.6186 260.7922 L 306.9247 261.2361 L 308.013 261.6227 L 316.3002 264.321 L 319.0765 265.225 L 320.3363 262.866 L 321.9235 259.8939 L 323.462 257.0237 L 325.0685 254.0267 L 326.669 251.0408 L 328.0687 248.4004 L 329.4595 245.7769 L 330.2525 244.2588 L 330.8151 242.9014 L 332.5789 241.3233 L 334.5986 239.5164 L 336.5658 237.7565 L 341.3346 233.5596 L 341.3362 233.4655 L 341.2487 231.7047 L 341.2997 231.0508 L 341.4005 230.6283 L 341.4516 229.9241 L 341.7623 225.3817 L 342.0592 222.4153 L 342.0886 222.2211 L 342.3784 220.7334 L 343.0172 217.4532 L 343.3651 215.7534 L 343.5663 214.7707 L 343.6632 214.2976 L 343.812 213.5366 L 344.0881 212.1249 L 344.2367 211.3648 L 344.3697 210.7217 L 344.6596 209.3199 L 344.8916 208.1978 L 345.1197 207.0948 L 345.357 205.9527 L 345.6264 204.656 L 346.2679 201.5682 L 347.0511 201.9369 L 347.4096 202.1389 L 348.9177 202.8411 L 351.8926 204.1216 L 352.2163 204.282 L 352.4173 204.3805 L 352.8437 204.5894 L 354.3668 205.2338 L 355.5179 205.6603 L 356.1614 205.8636 L 357.2793 206.2174 L 358.1848 206.5882 L 359.4384 207.2144 L 360.6665 207.873 L 361.782 208.7507 L 367.0878 211.5097 L 368.5269 212.1678 L 368.6134 212.0121 L 368.7432 211.6944 L 368.9167 211.299 L 369.4353 209.7059 L 370.8037 210.3092 L 372.9904 207.391 L 373.0299 207.4176 L 374.6412 207.8242 L 378.2426 201.228 L 378.3662 201.2462 L 378.5127 200.9298 L 378.6143 200.7134 L 379.5279 199.0381 L 379.5895 198.934 L 379.6488 198.8338 L 379.8517 198.4846 L 380.1374 197.9765 L 380.2054 197.8546 L 380.2716 197.7359 L 380.7203 196.7694 L 381.0768 196.1922 L 381.3108 195.8169 L 383.8022 191.8211 L 383.8059 191.82 L 383.8097 191.8189 L 383.8577 191.7423 L 383.8648 191.7276 L 383.8718 191.713 L 384.0458 191.3673 L 384.3444 190.769 L 384.7473 189.9514 L 385.775 187.8499 L 385.8904 187.7135 L 386.3072 186.7803 L 386.6618 185.9564 L 386.8484 186.0725 L 387.1417 186.2572 L 387.9388 186.7648 L 388.0992 186.8695 L 388.7837 187.3312 L 390.4996 188.4868 L 392.0475 189.5301 L 392.3455 189.73 L 393.1256 187.6899 L 394.4599 184.2345 L 395.7303 180.9278 L 397.0008 177.6211 L 400.0096 169.7985 L 400.9382 167.3819 L 401.2727 167.0794 L 403.4836 165.0798 L 407.0368 161.8717 L 406.6338 161.5987 L 405.002 160.7865 L 405.074 160.7073 L 405.1592 160.5882 L 405.8711 159.6287 L 406.3209 159.0575 L 407.1176 158.0765 L 407.8721 157.0817 L 408.573 156.1129 L 408.7476 155.9114 L 408.7798 155.8687 L 409.1019 155.4406 L 409.3907 155.0388 L 410.2842 153.8664 L 411.0684 152.8208 L 411.1263 152.6793 L 411.8425 151.7556 L 412.347 151.0409 L 412.8018 150.4476 L 413.1389 150.0203 L 413.2225 149.9096 L 413.6598 149.3333 L 414.0697 148.6915 L 414.817 147.4626 L 414.9109 147.1947 L 415.1347 146.8559 L 416.8789 144.5946 L 418.0148 143.1609 L 419.0691 145.9272 L 419.2754 146.4274 L 419.9527 148.0733 L 420.4318 149.2882 L 421.2772 151.3497 L 421.684 152.2891 L 422.0344 153.1956 L 422.2783 153.844 L 422.6799 154.728 L 422.9255 155.3177 L 423.2991 156.1818 L 424.5952 159.0985 L 425.141 160.3949 L 425.4485 161.3038 L 425.6898 161.1721 L 425.8663 161.08 L 425.9113 161.055 L 426.5037 160.7052 L 426.656 160.6151 L 427.0184 160.4008 L 427.4334 160.1553 L 427.9982 159.8323 L 428.2036 159.7149 L 428.7437 159.4462 L 429.2541 159.0831 L 429.4927 158.9133 L 429.9568 158.4037 L 430.228 157.8924 L 430.3639 157.4853 L 430.5105 156.8588 L 430.867 155.5676 L 431.1009 154.7449 L 431.7155 152.466 L 432.137 151.023 L 432.9461 148.1796 L 433.1856 147.3523 L 433.3582 146.7562 L 434.0422 144.3942 L 434.5267 142.7679 L 434.5772 142.4762 L 434.7038 142.1727 L 434.7689 141.7216 L 434.9099 141.2589 L 435.2405 140.0485 L 435.327 139.8133 L 435.6964 138.4528 L 435.9638 137.5261 L 436.5533 135.6167 L 437.6591 133.9753 L 438.3441 133.0353 L 438.8001 132.4442 L 439.8648 131.1092 L 441.0962 129.4489 L 443.5689 126.1377 L 445.7508 123.2198 L 445.9764 122.8148 L 446.1433 122.036 L 446.0784 121.3167 L 445.8295 120.7538 L 445.7547 120.5623 L 445.0813 119.8168 L 444.6255 119.4438 L 444.3568 119.2419 L 444.1457 119.0832 L 443.76 118.7512 L 442.83 118.0275 L 442.1964 117.3659 L 441.5973 116.4767 L 441.0889 115.5648 L 440.8747 114.8812 L 440.8898 114.2146 L 440.9788 113.7475 L 441.0913 113.3987 L 441.3087 112.8834 L 441.6875 111.8258 L 442.05 110.8919 L 442.4533 109.7783 L 442.8724 108.7215 L 443.1388 107.9147 L 443.501 107.1258 L 443.7553 106.8363 L 444.0744 106.46 L 444.3722 106.169 L 444.7802 105.8515 L 445.6327 105.2023 L 446.0659 104.8531 L 446.6073 104.3051 L 447.2332 103.6439 L 447.6781 103.114 L 447.8079 102.7754 L 447.885 102.3317 L 447.8411 101.9458 L 447.7082 101.5373 L 447.4317 101.2819 L 447.0304 101.1364 L 446.4463 100.999 L 446.2519 101.1286 L 445.8631 101.4449 L 445.5471 101.7857 L 445.239 102.1996 L 444.8987 102.5647 L 444.2349 102.9211 L 443.5449 103.0415 L 443.2963 103.0969 L 442.3202 103.3144 L 441.9491 103.197 L 441.5756 103.1354 L 440.9845 103.1378 L 439.8821 103.2861 L 439.6283 103.3281 L 438.6665 103.4764 L 438.0214 103.579 L 437.0127 103.6758 L 436.6186 103.6837 L 436.1075 103.6528 L 435.7679 103.4739 L 435.4625 103.1439 L 435.2993 102.7208 L 435.191 102.1386 L 435.118 101.406 L 435.0932 100.4317 L 435.0363 99.6285 L 434.8406 99.5016 L 434.7344 98.3441 L 434.6464 97.826 L 434.4431 97.2274 L 434.2338 96.7989 L 433.9323 96.5503 L 433.7455 96.4729 L 433.3295 96.3006 L 433.6917 95.5478 L 434.0304 94.9617 L 434.2636 94.3533 L 435.3526 87.4092 L 435.4496 86.453 L 437.3711 86.4201 L 440.6862 86.3392 L 445.0831 86.4405 L 446.3979 86.3836 L 447.0409 86.1964 L 447.462 85.5162 L 447.5957 85.1274 L 447.8167 84.3329 L 447.7555 83.5946 L 447.8362 82.7969 L 448.079 82.4106 L 448.4462 82.0428 L 448.8761 81.8887 L 450.3594 81.6071 L 451.3971 81.5679 L 452.6255 81.4383 L 453.6077 81.0821 L 454.1866 80.4956 L 454.6386 79.9691 L 455.0313 79.2836 L 455.2027 78.656 L 455.4055 78.0292 L 455.4513 77.3988 L 455.4336 76.7984 L 455.5451 76.0432 L 455.6999 75.6131 L 456.3022 75.4853 L 456.7579 75.6021 L 457.3505 75.8992 L 458.0726 76.6953 L 458.48 77.3779 L 458.8318 78.1367 L 458.9022 78.696 L 458.8031 79.3907 L 458.7015 80.197 L 458.8602 80.5352 L 459.3826 80.7424 L 460.0058 80.8032 L 461.1879 80.485 L 462.0203 80.1876 L 463.1634 80.1446 L 463.9918 80.2332 L 464.5791 80.2816 L 465.5757 80.5828 L 466.1558 80.944 L 467.1164 81.314 L 467.9842 81.1948 L 468.3389 80.8205 L 468.8398 80.1018 L 469.211 78.9975 L 469.4023 78.2021 L 469.7939 77.7242 L 470.0471 77.2433 L 470.298 76.8665 L 470.5864 76.6942 L 470.9131 76.7018 L 471.3435 76.7858 L 471.6329 77.0362 L 471.8656 77.4654 L 472.7317 78.5113 L 474.2498 79.6416 L 475.1161 80.1485 L 476.4152 80.2698 L 477.4152 80.2321 L 477.9441 79.6055 L 478.1713 78.9414 L 478.7609 78.3161 L 479.9653 77.2791 L 480.4324 76.7119 L 480.6864 76.2006 L 480.6686 75.2035 L 480.6399 74.2878 L 480.4251 73.5508 L 480.3436 72.7668 L 480.4409 72.1369 L 480.7147 71.7439 L 481.2846 71.441 L 482.1621 71.4447 L 483.4685 71.5082 L 483.9992 71.5704 L 484.5588 71.4782 L 484.7946 71.3204 L 484.9272 71.1134 L 484.9746 70.566 L 484.9272 69.0824 L 484.839 68.3892 L 485.0372 67.9706 L 485.4797 67.8046 L 486.1524 67.7907 L 486.5426 67.9908 L 487.0983 68.2147 L 488.0035 68.177 L 488.71 67.9002 L 489.6353 66.9836 L 490.1214 66.1447 L 490.0839 65.235 L 489.8527 64.2344 L 489.4341 62.7633 L 489.4677 62.0339 L 489.6053 61.4254 L 489.8841 60.5041 L 490.5906 59.4478 L 491.678 58.4312 L 492.3372 57.4973 L 492.4615 58.0887 L 492.9334 58.4522 L 493.6895 58.5069 L 494.4369 58.1345 L 495.1349 57.5012 L 495.8295 57.0163 L 496.483 56.716 L 496.9718 56.6996 L 497.3527 56.9124 L 497.9417 57.2265 L 498.0495 57.6706 L 498.1527 58.0659 Z" fill="#000000" fill-opacity="1" stroke="#000000" stroke-width="0" paint-order="fill" stroke-opacity="1" stroke-dasharray="" stroke-linecap="butt" stroke-linejoin="miter" stroke-miterlimit="10" transform="matrix(1.100000023841858,0,0,1.100000023841858,-42.50270080566406,-28.349956512451172)" clip-path="none" style="filter: url(#f1)"/>
<path d="M 498.1527 58.0659 L 498.0719 58.456 L 497.6622 58.508 L 496.7777 58.2087 L 498.5661 60.6176 L 499.1264 61.2232 L 500.0853 61.8857 L 501.0162 62.4518 L 501.4498 62.8139 L 501.7577 63.4687 L 501.4967 63.8978 L 501.2485 65.0917 L 501.3693 66.2864 L 501.9597 67.4239 L 502.4789 68.3017 L 504.9586 71.7458 L 506.1382 72.9765 L 507.0324 74.2884 L 507.4991 75.0667 L 507.3488 76.2568 L 506.2357 77.5194 L 504.7519 79.0046 L 504.0007 80.6069 L 504.08 81.9793 L 504.5224 83.0217 L 505.0528 83.9401 L 506.4443 84.8108 L 507.1092 85.6304 L 506.6631 86.5968 L 505.6072 87.4547 L 505.1441 88.1168 L 504.8814 89.0486 L 505.4377 89.9072 L 507.025 91.0613 L 508.8748 91.8088 L 511.3675 92.3881 L 512.4263 94.3182 L 513.8596 95.5573 L 514.3701 96.7432 L 514.4365 97.7809 L 514.4751 97.9737 L 517.18 98.1938 L 514.549 106.7246 L 514.9672 106.9137 L 515.5767 107.07 L 516.6714 107.664 L 518.0291 108.0983 L 518.9779 107.8597 L 519.6322 107.0933 L 520.3107 106.3036 L 520.9119 105.7965 L 521.1601 105.2574 L 521.3831 104.7888 L 522.0463 104.6621 L 522.7956 104.8928 L 523.1207 105.1135 L 523.5926 105.1008 L 523.8836 104.7523 L 524.1877 103.8355 L 524.4885 103.0608 L 525.2075 102.5564 L 525.9442 102.3129 L 526.8996 102.8089 L 527.3135 103.2686 L 527.7981 103.73 L 528.4156 103.929 L 529.3616 103.8089 L 530.2594 103.735 L 530.9567 104.1776 L 531.1354 104.6082 L 531.3356 105.134 L 531.87 105.478 L 532.8648 105.288 L 535.0523 104.5099 L 536.4477 104.3292 L 537.852 103.7697 L 538.5168 103.572 L 539.7868 103.72 L 541.2914 103.9209 L 543.2942 104.3012 L 543.7174 104.3585 L 544.3049 104.4432 L 545.0756 104.7691 L 545.4445 105.1331 L 545.4403 106.3411 L 545.5801 107.434 L 545.3516 108.1393 L 545.2173 109.7016 L 547.5425 109.8972 L 550.0478 110.5843 L 551.0913 111.0586 L 553.1263 111.9022 L 554.4307 112.482 L 554.6093 113.2246 L 554.48 113.9513 L 554.0597 115.2623 L 553.8487 116.3113 L 554.3695 117.0469 L 555.465 117.6263 L 555.9863 118.0996 L 557.0293 118.7838 L 557.5498 119.6769 L 557.601 120.2017 L 557.5992 121.0937 L 556.7614 122.2464 L 556.0281 123.3994 L 555.3992 124.5 L 555.3448 125.6018 L 555.9693 126.705 L 557.5324 128.4921 L 558.6782 130.0161 L 559.614 132.1169 L 560.2101 134.2239 L 562.2795 134.5487 L 564.122 134.8526 L 564.9689 134.8543 L 565.3212 134.9196 L 566.3631 135.2111 L 567.0602 135.828 L 567.2728 136.4296 L 568.0987 137.5105 L 569.5622 138.1987 L 570.6448 138.725 L 571.3864 139.2103 L 571.7058 140.0373 L 571.7026 141.6103 L 572.0425 142.256 L 572.4073 144.1627 L 572.9718 144.8032 L 574.0585 145.5251 L 574.4695 145.8178 L 574.6262 145.9072 L 574.5518 146.3153 L 574.739 160.9303 L 575.1688 161.5565 L 574.7145 162.1481 L 573.9442 163.1904 L 573.22 163.8244 L 571.8618 165.1832 L 569.506 168.2663 L 568.8709 169.5358 L 568.3265 170.6694 L 567.7364 171.9845 L 568.0925 172.8703 L 568.6379 173.3592 L 569.9716 174.2765 L 570.4553 175.1922 L 570.5145 175.985 L 571.0594 176.6569 L 571.3009 177.3281 L 572.028 178.0003 L 572.0766 178.0389 L 572.7643 182.1876 L 572.3216 182.9401 L 571.1655 184.3452 L 571.1628 185.6867 L 571.4628 187.4556 L 571.6387 190.5659 L 572.0021 190.9325 L 572.6086 191.1776 L 573.5188 191.3624 L 573.579 191.6064 L 573.3953 192.3987 L 573.3929 193.6183 L 573.6349 193.9847 L 574.0599 193.9245 L 574.6674 193.6819 L 574.97 194.1703 L 575.2709 195.4544 L 575.2678 196.9788 L 575.3242 199.1132 L 575.1407 199.8445 L 574.9566 200.8198 L 574.5908 201.6118 L 574.6496 202.5875 L 575.0727 203.4421 L 575.8602 204.2364 L 576.1002 205.6403 L 576.7047 206.8611 L 578.0943 210.0977 L 577.6556 211.4175 L 576.9203 211.8207 L 576.4362 212.6503 L 576.0797 213.9967 L 575.8135 215.4503 L 575.5402 217.2192 L 574.9944 218.7014 L 573.4679 219.8487 L 573.4372 221.444 L 572.1059 222.721 L 571.4812 223.594 L 571.2252 224.6157 L 570.8265 225.7743 L 569.5677 227.6459 L 569.7452 229.9649 L 569.8633 231.6116 L 570.6482 233.6864 L 571.1916 235.09 L 571.6138 236.4324 L 573.0395 238.7107 L 573.272 240.7249 L 572.9045 242.5382 L 572.5037 243.7902 L 572.4344 244.7696 L 572.5458 245.9868 L 572.7511 247.1595 L 573.1315 248.8036 L 573.254 249.9619 L 574.0505 250.9195 L 574.0497 251.3118 L 573.8743 252.227 L 574.4347 254.0592 L 574.9525 255.5425 L 575.5574 256.8517 L 576.5933 259.5568 L 576.849 261.0015 L 576.9908 262.0911 L 576.0681 262.4278 L 575.5966 263.0086 L 574.9359 263.289 L 574.5047 263.5419 L 573.8561 264.1912 L 573.3087 264.4414 L 573.0674 264.7075 L 572.9478 264.8519 L 572.3391 265.3991 L 572.4535 265.666 L 572.6611 265.8178 L 573.0775 265.5592 L 573.516 265.5622 L 574.1683 265.7581 L 574.6549 266.3213 L 574.4305 267.1453 L 574.0194 268.3049 L 573.8893 268.8164 L 573.1608 268.9141 L 572.1406 269.0674 L 571.8377 269.7195 L 571.6776 270.7074 L 571.9389 272.974 L 571.9721 274.2963 L 571.3922 274.3399 L 570.3027 273.7959 L 568.4897 273.4448 L 566.9489 273.9107 L 565.7364 274.6803 L 564.3857 275.5706 L 564.2757 275.5985 L 562.8527 275.6354 L 560.8755 276.0286 L 559.8081 276.1456 L 558.7399 276.6598 L 557.7901 277.214 L 557.1162 278.2452 L 556.0865 279.2758 L 555.0222 279.7109 L 553.3514 280.4265 L 551.8011 280.5033 L 550.37 280.5404 L 549.4158 280.6983 L 548.5406 281.096 L 547.7456 281.0722 L 547.1492 281.196 L 546.664 281.5814 L 545.8326 281.8874 L 544.9191 281.9253 L 543.9686 282.2878 L 543.0824 282.415 L 542.3146 282.5155 L 541.6138 282.2624 L 540.2109 281.8155 L 539.0923 281.7415 L 536.838 281.5911 L 535.9889 281.4187 L 534.1769 281.4152 L 531.8679 281.4268 L 530.3415 281.5478 L 528.4145 281.7388 L 527.5633 282.1567 L 527.328 281.6218 L 527.0331 280.9466 L 526.9994 280.6248 L 526.2332 280.6783 L 525.4794 280.7376 L 525.0296 280.601 L 524.6879 280.4014 L 524.2213 279.6316 L 523.808 279.2509 L 522.9713 279.0322 L 522.089 279.121 L 518.968 279.8484 L 518.3552 280.2452 L 516.8857 281.4907 L 516.3643 281.9355 L 515.6002 282.5272 L 513.2367 283.7237 L 512.6603 284.0264 L 512.1379 284.7706 L 511.9295 285.2355 L 511.6649 285.8528 L 511.2886 286.4297 L 511.7174 286.6308 L 511.9898 287.1006 L 512.0906 287.6638 L 512.064 288.2524 L 511.954 288.5835 L 511.879 288.9646 L 511.8868 289.3475 L 510.7368 289.5915 L 509.7853 289.9189 L 509.1177 290.8686 L 508.7991 292.3669 L 508.3893 293.6223 L 507.3014 295.4658 L 505.7405 297.0938 L 503.6518 299.605 L 501.5272 300.864 L 500.2563 301.644 L 497.3339 302.8953 L 496.1437 302.5799 L 494.5557 302.369 L 492.6044 302.3986 L 492.2323 302.5193 L 491.5519 304.1898 L 491.6885 304.5852 L 491.9127 305.0935 L 492.6604 305.5849 L 493.3057 307.5279 L 494.5006 310.6716 L 494.465 310.8695 L 491.1855 314.7416 L 488.3225 318.0799 L 484.3124 322.7805 L 480.3508 327.5443 L 480.2017 327.552 L 480.3588 329.0837 L 480.3719 329.2326 L 480.8629 335.07 L 481.04 336.1133 L 481.1463 337.7972 L 481.1534 337.8981 L 481.2122 338.5582 L 481.6364 342.8452 L 485.4262 342.5198 L 489.1435 342.3195 L 492.979 341.9725 L 496.845 341.7745 L 500.6361 341.4739 L 504.4618 341.2141 L 503.7905 336.1747 L 503.9096 336.1603 L 505.2282 339.7998 L 506.6085 343.563 L 507.638 346.451 L 508.6924 349.3486 L 509.5059 351.5391 L 510.177 353.4091 L 510.873 355.2887 L 512.0274 358.1217 L 512.3137 358.2012 L 512.4271 358.4222 L 515.5912 360.6112 L 518.124 363.9745 L 523.2211 371.2291 L 524.5377 373.1195 L 525.4072 378.6634 L 525.6273 378.9622 L 528.2459 379.2383 L 535.5303 379.9635 L 539.6566 380.3993 L 527.2317 386.5343 L 520.8991 389.5346 L 517.1328 391.3029 L 508.2784 395.5677 L 501.97 395.8963 L 498.035 395.8445 L 491.9057 395.8332 L 483.0882 395.5651 L 472.3167 395.1613 L 465.9852 395.1315 L 461.178 395.1074 L 461.4301 394.5982 L 461.5622 394.1945 L 460.8463 394.8015 L 460.9723 392.9185 L 459.0857 393.2024 L 457.7368 392.6155 L 456.4822 393.7265 L 456.3056 393.8829 L 454.6589 395.5641 L 443.25 395.0194 L 436.0762 395.1887 L 436.2186 400.2238 L 435.9346 400.3001 L 433.8598 400.571 L 434.0389 404.4259 L 434.0783 406.314 L 437.2147 406.885 L 437.7502 408.8685 L 437.6061 409.1411 L 427.5667 413.6187 L 426.9222 412.4405 L 425.3211 409.3796 L 423.9643 406.8752 L 422.7365 404.4728 L 422.0707 404.656 L 417.7937 404.0375 L 417.71 404.0254 L 411.8966 403.182 L 411.0957 406.4427 L 409.7513 411.917 L 409.105 414.5488 L 409.0405 414.8113 L 408.8911 415.4167 L 408.2654 417.9678 L 407.5813 420.7531 L 407.0351 422.9777 L 406.917 423.4585 L 406.6751 424.4433 L 415.7739 426.4077 L 416.0782 426.4733 L 421.0975 427.5548 L 421.1851 427.5737 L 424.8873 428.3565 L 423.8614 433.3082 L 416.9502 431.9375 L 419.2042 446.6358 L 409.2767 442.1621 L 405.2945 441.2518 L 402.7821 441.0575 L 402.8065 441.621 L 408.0513 446.8781 L 413.2445 452.0587 L 418.6078 457.3123 L 418.7471 457.4595 L 421.4464 460.2519 L 427.9403 466.876 L 431.7188 470.8846 L 433.7524 472.8309 L 435.5537 474.6349 L 436.5249 475.8038 L 427.8157 474.2991 L 427.3355 479.503 L 427.2635 479.792 L 426.8407 479.4313 L 425.3333 478.7382 L 423.4022 477.8923 L 423.3349 477.7886 L 423.731 473.6014 L 408.2683 470.8424 L 407.5453 470.7161 L 404.3367 470.1333 L 403.0287 479.5949 L 403.1037 479.7253 L 401.7134 487.1873 L 401.6867 487.3071 L 400.2276 487.1483 L 398.3425 498.2054 L 398.3369 498.2536 L 397.9679 498.25 L 395.729 510.1441 L 395.6952 510.2996 L 395.2724 510.1707 L 393.9189 509.7091 L 389.9101 508.5467 L 385.9095 507.3463 L 381.4767 506.2253 L 377.93 505.364 L 374.7686 504.893 L 369.6544 504.3912 L 368.8498 504.2327 L 368.4625 503.2002 L 367.1814 503.0354 L 363.8795 502.6684 L 363.1651 502.6131 L 361.791 502.9716 L 360.6835 503.2912 L 360.289 503.3351 L 351.6851 502.3912 L 349.7075 502.1988 L 343.8189 501.535 L 325.2278 499.3949 L 322.2383 499.101 L 321.1102 498.9738 L 320.6802 498.8607 L 317.1909 498.5196 L 309.5265 497.6576 L 299.9904 496.624 L 287.8517 495.2922 L 296.8182 486.5532 L 297.2961 486.1198 L 297.4233 485.7475 L 297.9926 483.7942 L 298.6482 481.5419 L 299.0492 480.0964 L 299.4908 478.5941 L 299.8005 477.0307 L 300.077 475.326 L 300.3798 473.3484 L 300.7518 471.2944 L 301.5803 465.5245 L 301.8674 463.5141 L 302.0593 462.0557 L 302.3268 460.2691 L 303.1163 458.1157 L 303.418 457.007 L 303.1807 457.0747 L 300.836 457.4171 L 300.7712 457.4203 L 299.9527 450.8608 L 299.1552 444.3262 L 303.8313 437.4642 L 308.2895 430.6554 L 308.5795 430.6537 L 311.9439 425.6747 L 312.0839 425.5998 L 312.8267 431.948 L 315.6218 427.0041 L 317.2687 424.0374 L 319.6499 419.7879 L 319.8579 419.4555 L 323.656 412.8415 L 320.4393 410.9573 L 318.902 410.0167 L 318.6606 409.821 L 318.4646 409.6807 L 318.0667 409.4451 L 317.2227 408.9593 L 316.7798 408.7031 L 313.4315 406.8927 L 310.2275 404.8452 L 306.9585 402.972 L 303.684 401.0441 L 300.4658 399.0732 L 297.2652 397.1795 L 294.4468 395.4967 L 293.8585 395.153 L 291.2582 393.63 L 290.8385 393.3509 L 288.1007 391.8036 L 287.4471 391.4384 L 284.9217 390.0626 L 284.1275 389.516 L 284.8592 388.1867 L 281.9416 386.6393 L 282.8317 381.6961 L 283.2453 379.4192 L 284.0624 374.8012 L 284.7378 371.0346 L 285.4095 367.4951 L 286.0066 364.1783 L 275.7911 358.0488 L 275.6378 357.9484 L 278.0364 351.2963 L 279.9207 345.9685 L 283.6817 335.603 L 284.0342 334.6683 L 285.7039 331.1981 L 288.751 325.1029 L 288.8832 325.2487 L 289.8105 323.4289 L 290.3923 322.2344 L 290.6854 321.6604 L 291.7519 319.5711 L 293.2174 316.7631 L 297.1982 308.4521 L 297.2035 308.2184 L 294.4492 306.6164 L 291.0279 304.5889 L 290.1449 304.1032 L 289.2817 303.5923 L 288.3633 303.0477 L 288.1754 302.9363 L 287.987 302.8269 L 287.8713 302.7598 L 285.8143 301.5074 L 282.8066 299.7593 L 281.0439 298.7669 L 280.0671 298.2322 L 281.2651 296.0417 L 278.9388 294.6702 L 274.2862 291.9272 L 271.9599 290.5557 L 272.3049 290.1599 L 272.5695 289.8562 L 272.7236 289.6794 L 272.9046 289.466 L 274.0265 288.1439 L 275.4582 286.4567 L 275.5796 286.3154 L 275.8417 286.0106 L 276.2511 285.5459 L 277.8538 283.7743 L 278.5877 283.0405 L 278.8025 282.758 L 279.5414 281.9757 L 279.7294 281.6527 L 279.9349 281.4582 L 280.1239 281.2793 L 281.5749 279.1531 L 282.0194 278.538 L 282.479 277.9021 L 283.0531 277.0336 L 284.0094 275.6005 L 285.5484 273.3346 L 285.8274 272.9073 L 287.8218 269.7984 L 287.9838 269.529 L 288.363 268.9198 L 288.9803 268.0259 L 289.3635 267.4712 L 289.5343 267.2119 L 289.5344 267.2117 L 290.2216 266.1684 L 290.9019 265.181 L 293.405 260.8841 L 295.1155 257.7494 L 295.3988 257.1905 L 297.3096 257.9593 L 300.2474 258.9691 L 301.5328 259.4429 L 303.757 260.1861 L 305.6186 260.7922 L 306.9247 261.2361 L 308.013 261.6227 L 316.3002 264.321 L 319.0765 265.225 L 320.3363 262.866 L 321.9235 259.8939 L 323.462 257.0237 L 325.0685 254.0267 L 326.669 251.0408 L 328.0687 248.4004 L 329.4595 245.7769 L 330.2525 244.2588 L 330.8151 242.9014 L 332.5789 241.3233 L 334.5986 239.5164 L 336.5658 237.7565 L 341.3346 233.5596 L 341.3362 233.4655 L 341.2487 231.7047 L 341.2997 231.0508 L 341.4005 230.6283 L 341.4516 229.9241 L 341.7623 225.3817 L 342.0592 222.4153 L 342.0886 222.2211 L 342.3784 220.7334 L 343.0172 217.4532 L 343.3651 215.7534 L 343.5663 214.7707 L 343.6632 214.2976 L 343.812 213.5366 L 344.0881 212.1249 L 344.2367 211.3648 L 344.3697 210.7217 L 344.6596 209.3199 L 344.8916 208.1978 L 345.1197 207.0948 L 345.357 205.9527 L 345.6264 204.656 L 346.2679 201.5682 L 347.0511 201.9369 L 347.4096 202.1389 L 348.9177 202.8411 L 351.8926 204.1216 L 352.2163 204.282 L 352.4173 204.3805 L 352.8437 204.5894 L 354.3668 205.2338 L 355.5179 205.6603 L 356.1614 205.8636 L 357.2793 206.2174 L 358.1848 206.5882 L 359.4384 207.2144 L 360.6665 207.873 L 361.782 208.7507 L 367.0878 211.5097 L 368.5269 212.1678 L 368.6134 212.0121 L 368.7432 211.6944 L 368.9167 211.299 L 369.4353 209.7059 L 370.8037 210.3092 L 372.9904 207.391 L 373.0299 207.4176 L 374.6412 207.8242 L 378.2426 201.228 L 378.3662 201.2462 L 378.5127 200.9298 L 378.6143 200.7134 L 379.5279 199.0381 L 379.5895 198.934 L 379.6488 198.8338 L 379.8517 198.4846 L 380.1374 197.9765 L 380.2054 197.8546 L 380.2716 197.7359 L 380.7203 196.7694 L 381.0768 196.1922 L 381.3108 195.8169 L 383.8022 191.8211 L 383.8059 191.82 L 383.8097 191.8189 L 383.8577 191.7423 L 383.8648 191.7276 L 383.8718 191.713 L 384.0458 191.3673 L 384.3444 190.769 L 384.7473 189.9514 L 385.775 187.8499 L 385.8904 187.7135 L 386.3072 186.7803 L 386.6618 185.9564 L 386.8484 186.0725 L 387.1417 186.2572 L 387.9388 186.7648 L 388.0992 186.8695 L 388.7837 187.3312 L 390.4996 188.4868 L 392.0475 189.5301 L 392.3455 189.73 L 393.1256 187.6899 L 394.4599 184.2345 L 395.7303 180.9278 L 397.0008 177.6211 L 400.0096 169.7985 L 400.9382 167.3819 L 401.2727 167.0794 L 403.4836 165.0798 L 407.0368 161.8717 L 406.6338 161.5987 L 405.002 160.7865 L 405.074 160.7073 L 405.1592 160.5882 L 405.8711 159.6287 L 406.3209 159.0575 L 407.1176 158.0765 L 407.8721 157.0817 L 408.573 156.1129 L 408.7476 155.9114 L 408.7798 155.8687 L 409.1019 155.4406 L 409.3907 155.0388 L 410.2842 153.8664 L 411.0684 152.8208 L 411.1263 152.6793 L 411.8425 151.7556 L 412.347 151.0409 L 412.8018 150.4476 L 413.1389 150.0203 L 413.2225 149.9096 L 413.6598 149.3333 L 414.0697 148.6915 L 414.817 147.4626 L 414.9109 147.1947 L 415.1347 146.8559 L 416.8789 144.5946 L 418.0148 143.1609 L 419.0691 145.9272 L 419.2754 146.4274 L 419.9527 148.0733 L 420.4318 149.2882 L 421.2772 151.3497 L 421.684 152.2891 L 422.0344 153.1956 L 422.2783 153.844 L 422.6799 154.728 L 422.9255 155.3177 L 423.2991 156.1818 L 424.5952 159.0985 L 425.141 160.3949 L 425.4485 161.3038 L 425.6898 161.1721 L 425.8663 161.08 L 425.9113 161.055 L 426.5037 160.7052 L 426.656 160.6151 L 427.0184 160.4008 L 427.4334 160.1553 L 427.9982 159.8323 L 428.2036 159.7149 L 428.7437 159.4462 L 429.2541 159.0831 L 429.4927 158.9133 L 429.9568 158.4037 L 430.228 157.8924 L 430.3639 157.4853 L 430.5105 156.8588 L 430.867 155.5676 L 431.1009 154.7449 L 431.7155 152.466 L 432.137 151.023 L 432.9461 148.1796 L 433.1856 147.3523 L 433.3582 146.7562 L 434.0422 144.3942 L 434.5267 142.7679 L 434.5772 142.4762 L 434.7038 142.1727 L 434.7689 141.7216 L 434.9099 141.2589 L 435.2405 140.0485 L 435.327 139.8133 L 435.6964 138.4528 L 435.9638 137.5261 L 436.5533 135.6167 L 437.6591 133.9753 L 438.3441 133.0353 L 438.8001 132.4442 L 439.8648 131.1092 L 441.0962 129.4489 L 443.5689 126.1377 L 445.7508 123.2198 L 445.9764 122.8148 L 446.1433 122.036 L 446.0784 121.3167 L 445.8295 120.7538 L 445.7547 120.5623 L 445.0813 119.8168 L 444.6255 119.4438 L 444.3568 119.2419 L 444.1457 119.0832 L 443.76 118.7512 L 442.83 118.0275 L 442.1964 117.3659 L 441.5973 116.4767 L 441.0889 115.5648 L 440.8747 114.8812 L 440.8898 114.2146 L 440.9788 113.7475 L 441.0913 113.3987 L 441.3087 112.8834 L 441.6875 111.8258 L 442.05 110.8919 L 442.4533 109.7783 L 442.8724 108.7215 L 443.1388 107.9147 L 443.501 107.1258 L 443.7553 106.8363 L 444.0744 106.46 L 444.3722 106.169 L 444.7802 105.8515 L 445.6327 105.2023 L 446.0659 104.8531 L 446.6073 104.3051 L 447.2332 103.6439 L 447.6781 103.114 L 447.8079 102.7754 L 447.885 102.3317 L 447.8411 101.9458 L 447.7082 101.5373 L 447.4317 101.2819 L 447.0304 101.1364 L 446.4463 100.999 L 446.2519 101.1286 L 445.8631 101.4449 L 445.5471 101.7857 L 445.239 102.1996 L 444.8987 102.5647 L 444.2349 102.9211 L 443.5449 103.0415 L 443.2963 103.0969 L 442.3202 103.3144 L 441.9491 103.197 L 441.5756 103.1354 L 440.9845 103.1378 L 439.8821 103.2861 L 439.6283 103.3281 L 438.6665 103.4764 L 438.0214 103.579 L 437.0127 103.6758 L 436.6186 103.6837 L 436.1075 103.6528 L 435.7679 103.4739 L 435.4625 103.1439 L 435.2993 102.7208 L 435.191 102.1386 L 435.118 101.406 L 435.0932 100.4317 L 435.0363 99.6285 L 434.8406 99.5016 L 434.7344 98.3441 L 434.6464 97.826 L 434.4431 97.2274 L 434.2338 96.7989 L 433.9323 96.5503 L 433.7455 96.4729 L 433.3295 96.3006 L 433.6917 95.5478 L 434.0304 94.9617 L 434.2636 94.3533 L 435.3526 87.4092 L 435.4496 86.453 L 437.3711 86.4201 L 440.6862 86.3392 L 445.0831 86.4405 L 446.3979 86.3836 L 447.0409 86.1964 L 447.462 85.5162 L 447.5957 85.1274 L 447.8167 84.3329 L 447.7555 83.5946 L 447.8362 82.7969 L 448.079 82.4106 L 448.4462 82.0428 L 448.8761 81.8887 L 450.3594 81.6071 L 451.3971 81.5679 L 452.6255 81.4383 L 453.6077 81.0821 L 454.1866 80.4956 L 454.6386 79.9691 L 455.0313 79.2836 L 455.2027 78.656 L 455.4055 78.0292 L 455.4513 77.3988 L 455.4336 76.7984 L 455.5451 76.0432 L 455.6999 75.6131 L 456.3022 75.4853 L 456.7579 75.6021 L 457.3505 75.8992 L 458.0726 76.6953 L 458.48 77.3779 L 458.8318 78.1367 L 458.9022 78.696 L 458.8031 79.3907 L 458.7015 80.197 L 458.8602 80.5352 L 459.3826 80.7424 L 460.0058 80.8032 L 461.1879 80.485 L 462.0203 80.1876 L 463.1634 80.1446 L 463.9918 80.2332 L 464.5791 80.2816 L 465.5757 80.5828 L 466.1558 80.944 L 467.1164 81.314 L 467.9842 81.1948 L 468.3389 80.8205 L 468.8398 80.1018 L 469.211 78.9975 L 469.4023 78.2021 L 469.7939 77.7242 L 470.0471 77.2433 L 470.298 76.8665 L 470.5864 76.6942 L 470.9131 76.7018 L 471.3435 76.7858 L 471.6329 77.0362 L 471.8656 77.4654 L 472.7317 78.5113 L 474.2498 79.6416 L 475.1161 80.1485 L 476.4152 80.2698 L 477.4152 80.2321 L 477.9441 79.6055 L 478.1713 78.9414 L 478.7609 78.3161 L 479.9653 77.2791 L 480.4324 76.7119 L 480.6864 76.2006 L 480.6686 75.2035 L 480.6399 74.2878 L 480.4251 73.5508 L 480.3436 72.7668 L 480.4409 72.1369 L 480.7147 71.7439 L 481.2846 71.441 L 482.1621 71.4447 L 483.4685 71.5082 L 483.9992 71.5704 L 484.5588 71.4782 L 484.7946 71.3204 L 484.9272 71.1134 L 484.9746 70.566 L 484.9272 69.0824 L 484.839 68.3892 L 485.0372 67.9706 L 485.4797 67.8046 L 486.1524 67.7907 L 486.5426 67.9908 L 487.0983 68.2147 L 488.0035 68.177 L 488.71 67.9002 L 489.6353 66.9836 L 490.1214 66.1447 L 490.0839 65.235 L 489.8527 64.2344 L 489.4341 62.7633 L 489.4677 62.0339 L 489.6053 61.4254 L 489.8841 60.5041 L 490.5906 59.4478 L 491.678 58.4312 L 492.3372 57.4973 L 492.4615 58.0887 L 492.9334 58.4522 L 493.6895 58.5069 L 494.4369 58.1345 L 495.1349 57.5012 L 495.8295 57.0163 L 496.483 56.716 L 496.9718 56.6996 L 497.3527 56.9124 L 497.9417 57.2265 L 498.0495 57.6706 L 498.1527 58.0659 Z" fill="#f4f6f7" fill-opacity="1" stroke="#000000" stroke-width="0.4545454446934474" paint-order="fill" stroke-opacity="1" stroke-dasharray="" stroke-linecap="butt" stroke-linejoin="miter" stroke-miterlimit="10" transform="matrix(1.100000023841858,0,0,1.100000023841858,-42.50270080566406,-28.349956512451172)" clip-path="none"/>
<path fill="rgba(0,0,0,0)" fill-opacity="1" stroke="#ccc" stroke-width="0" paint-order="fill" stroke-opacity="1" stroke-dasharray="" stroke-linecap="butt" stroke-linejoin="miter" stroke-miterlimit="10" transform="matrix(1,0,0,1,15,10)" clip-path="none"/>
<text transform="matrix(1,0,0,1,15,10)" fill="#333" fill-opacity="1" stroke="none" clip-path="none" style="font: bolder 16px Tahoma;"><tspan dominant-baseline="middle" text-anchor="start" x="0" y="8">Mineral de la Reforma</tspan></text><defs><filter id="f1" x="-100%" y="-100%" width="1000%" height="1000%"><feOffset result="offOut" in="SourceGraphic" dx="-9.799999999999999" dy="9.799999999999999"></feOffset><feColorMatrix result="matrixOut" in="offOut" type="matrix" values="0.2 0 0 0 0 0 0.2 0 0 0 0 0 0.2 0 0 0 0 0 1 0"></feColorMatrix><feGaussianBlur result="blurOut" in="matrixOut" stdDeviation="8"></feGaussianBlur><feBlend in="SourceGraphic" in2="blurOut" mode="normal"></feBlend></filter></defs>
<text x="700" y="552.66666666667" font-size="11">tools.paintmaps.com</text>
</svg>