<?xml version="1.0" standalone="no"?>
<!-- Generator: Paintmaps.com , Online SVG vector map maker -->
<svg xmlns="http://www.w3.org/2000/svg" version="1.1" baseProfile="full" width="850" height="567" style="background-color:false">
<path d="M 694.9409 114.2591 L 696.3668 114.7394 L 703.2706 114.5774 L 704.5809 114.5774 L 707.2566 115.4054 L 708.5586 116.0095 L 710.5103 116.3513 L 712.3684 117.1764 L 713.9952 118.2342 L 715.6166 120.1113 L 717.2407 121.6348 L 718.9859 122.342 L 721.5019 121.9501 L 723.8335 120.789 L 725.6998 119.8815 L 727.5662 118.7175 L 729.1985 117.4386 L 731.0649 116.7432 L 732.9285 115.9329 L 735.026 115.3553 L 736.8869 115.4791 L 737.776 115.0665 L 738.9982 115.6146 L 740.1984 115.4791 L 740.4792 115.4555 L 742.5079 114.8838 L 743.4934 114.0646 L 743.4907 114.8367 L 747.3472 119.2361 L 750.7056 123.5737 L 751.2781 126.267 L 751.9635 129.6587 L 752.5361 132.349 L 752.9931 134.9215 L 753.5684 136.7956 L 753.907 139.3681 L 754.9447 142.6448 L 755.7485 145.3381 L 756.1917 151.7237 L 756.7671 153.4799 L 756.412 155.3511 L 755.8229 156.8686 L 755.2365 158.7369 L 755.3439 160.8408 L 754.9943 161.4243 L 754.7355 163.1245 L 753.896 164.8572 L 751.8644 166.7077 L 749.9513 168.4345 L 749.5246 171.1867 L 749.4806 173.6148 L 748.9108 176.2138 L 747.6473 179.6202 L 747.0472 182.01 L 745.6295 184.7151 L 745.58 185.5107 L 745.5772 186.6364 L 745.6956 187.8887 L 745.6075 189.4328 L 744.6496 190.7411 L 746.7416 193.5877 L 748.0079 194.9608 L 748.8667 196.446 L 749.0952 198.2435 L 749.5191 199.0096 L 750.4798 198.3289 L 751.2451 197.4479 L 752.5857 195.9834 L 754.5263 195.3675 L 756.4918 195.2585 L 758.3691 195.4264 L 760.8493 195.5148 L 762.4349 195.2467 L 764.0673 194.5513 L 765.0005 193.735 L 763.4507 203.9542 L 760.9787 211.8956 L 760.263 217.0376 L 759.6739 219.3744 L 759.7042 220.6356 L 760.0043 220.9627 L 760.5988 221.1513 L 760.9787 221.3104 L 760.6319 221.4283 L 757.7966 222.492 L 757.2378 222.5716 L 757.9204 224.9142 L 758.0663 225.3916 L 758.76 226.4288 L 758.9417 227.1331 L 758.9692 227.3688 L 759.0436 227.634 L 759.2528 231.8832 L 759.6987 235.6049 L 760.3015 236.7541 L 758.3609 236.8573 L 757.3066 238.4249 L 756.2385 239.6242 L 754.6007 241.0328 L 751.7268 240.6615 L 750.6698 240.4758 L 749.6678 241.1123 L 748.1786 241.8077 L 746.0259 242.7389 L 743.7384 243.0866 L 742.2217 242.8155 L 740.4847 241.9551 L 738.2687 240.8795 L 736.1161 240.1841 L 733.4212 240.7587 L 731.1722 241.8372 L 727.7258 242.8126 L 726.2118 243.2723 L 724.2932 244.006 L 722.146 244.4568 L 720.3485 244.339 L 718.8593 244.118 L 716.7755 243.5728 L 715.5533 242.6888 L 715.3661 243.2104 L 715.2339 243.6936 L 715.1376 244.613 L 714.8623 246.1836 L 714.733 247.2651 L 714.565 249.0331 L 714.5568 249.976 L 713.6979 249.8729 L 711.3333 249.5134 L 710.6864 253.5917 L 710.1662 254.5464 L 708.9164 255.7162 L 708.6136 255.4893 L 707.9034 259.4114 L 709.6872 260.6874 L 710.2928 260.6991 L 710.4277 260.7374 L 710.7773 260.2336 L 712.049 262.4082 L 712.1702 262.6705 L 712.1316 262.9711 L 711.6031 266.7782 L 712.4124 267.4766 L 712.6959 267.5503 L 713.1006 267.6681 L 714.009 270.7916 L 714.3255 272.5361 L 714.5705 275.2265 L 714.6862 277.0917 L 714.5733 277.3569 L 712.4152 276.3403 L 711.0994 275.8276 L 710.5901 275.8453 L 711.27 277.3628 L 713.1584 279.5139 L 713.519 280.7869 L 714.5953 281.8654 L 715.5175 283.5745 L 716.2855 284.6618 L 716.7424 286.0586 L 717.1223 287.5349 L 717.4251 289.1644 L 717.4224 290.6378 L 717.1664 291.2448 L 716.5773 291.2772 L 716.3681 291.5483 L 716.335 292.3616 L 715.7322 292.6003 L 714.2953 293.2721 L 713.4832 293.6464 L 711.7765 294.6542 L 711.1929 294.8693 L 711.0966 294.2917 L 711.2508 293.2397 L 708.9963 294.0972 L 705.6765 294.8634 L 703.3559 296.2513 L 703.8597 298.5674 L 703.6037 298.4436 L 703.2761 298.6175 L 703.1082 299.5752 L 703.6312 300.5181 L 704.1625 301.3137 L 704.1515 301.7322 L 705.1727 305.3213 L 705.7013 306.3173 L 705.66 306.9685 L 705.3214 308.6569 L 705.1535 312.2254 L 704.9911 314.3176 L 704.2974 314.627 L 703.2156 315.0101 L 702.5081 318.3163 L 701.9658 319.2445 L 701.3437 320.2523 L 701.4153 322.1146 L 701.5612 324.3629 L 702.1723 326.4581 L 702.0924 327.622 L 702.3952 329.0983 L 702.8522 330.8045 L 703.0807 331.8918 L 703.5376 333.598 L 703.5321 335.1509 L 703.2183 336.6242 L 702.9045 337.6291 L 701.7428 339.0995 L 701.2006 340.0277 L 703.4963 346.0685 L 710.8791 358.0852 L 711.4957 361.9336 L 712.5666 364.0405 L 714.2347 364.8243 L 714.8293 366.9577 L 715.8395 368.378 L 716.77 370.482 L 718.2207 372.5418 L 720.8412 374.1124 L 725.0392 377.784 L 725.5704 379.0157 L 727.4368 381.9801 L 729.3004 384.4966 L 732.678 389.8066 L 735.5491 394.592 L 737.6108 400.73 L 737.3108 400.8126 L 737.0575 400.8715 L 736.7547 400.7713 L 736.0473 400.2704 L 735.6509 400.1407 L 735.1416 399.9551 L 734.7177 399.9521 L 734.4617 400.1378 L 734.2332 400.3499 L 734.0075 400.3499 L 733.5093 400.4619 L 733.1817 400.7448 L 732.9367 401.0601 L 732.766 401.0895 L 732.4743 401.1072 L 732.1549 401.0365 L 731.731 400.8951 L 731.453 400.8302 L 731.1282 400.7212 L 730.8336 400.7801 L 730.2005 400.7772 L 729.8592 400.8538 L 729.5949 400.786 L 729.1765 400.786 L 728.9095 400.8833 L 728.7553 401.0041 L 728.5681 401.1721 L 728.1828 401.2487 L 727.8166 401.3783 L 727.4753 401.5787 L 726.7541 401.9853 L 726.2366 402.2682 L 725.2979 402.7662 L 724.0619 403.3644 L 723.6738 403.3261 L 723.115 403.3232 L 722.7682 403.2436 L 722.603 403.058 L 722.4654 402.8163 L 722.4654 402.4303 L 722.5672 402.2682 L 723.0627 402.0295 L 723.6628 401.9264 L 723.8252 401.7378 L 723.7922 401.3842 L 723.605 401.0041 L 723.0654 400.4766 L 722.4736 400.0494 L 721.7111 399.6162 L 721.1578 399.4217 L 720.6843 399.1035 L 720.2687 398.685 L 719.9659 398.3049 L 719.6521 397.9454 L 719.1538 397.692 L 718.6914 397.5623 L 718.083 397.4739 L 717.6921 397.5712 L 717.3783 397.636 L 716.9214 397.7598 L 716.5222 397.9425 L 716.1754 398.0574 L 715.8175 398.2401 L 715.5257 398.4699 L 715.3936 398.7734 L 715.3578 399.2596 L 715.4101 399.6457 L 715.6551 400.3322 L 715.7267 400.5503 L 715.5835 400.7801 L 715.4459 400.9098 L 715.2725 401.0188 L 715.1486 401.1102 L 715.5946 401.8793 L 716.4809 403.5707 L 718.4629 405.601 L 719.363 407.425 L 719.9328 408.9985 L 720.2577 410.4896 L 720.8275 411.901 L 720.6761 413.3007 L 718.0032 411.518 L 715.9056 410.2951 L 714.4852 409.1871 L 712.1399 408.0556 L 707.5621 406.1874 L 706.5023 405.5067 L 704.3221 404.77 L 703.5431 403.9803 L 702.3705 403.3025 L 699.86 401.4962 L 697.8505 400.3647 L 695.285 398.3314 L 693.0002 396.5251 L 690.7485 394.9898 L 690.2007 394.2591 L 688.6399 393.3957 L 686.0248 392.5559 L 682.1324 389.8655 L 680.0624 388.1947 L 678.2621 387.2164 L 676.4976 385.2539 L 673.4091 383.0203 L 670.1443 380.7867 L 669.1754 379.7141 L 668.7349 378.4676 L 668.7432 376.3342 L 669.1065 373.7558 L 668.6744 370.3759 L 667.9752 368.0598 L 666.2575 364.5738 L 664.5012 362.022 L 660.6392 360.2245 L 655.6732 357.3868 L 655.4228 358.1618 L 654.9878 359.2079 L 654.4565 360.1567 L 653.8647 361.1203 L 652.8407 361.4356 L 649.821 361.3148 L 646.9746 360.4867 L 645.356 360.3482 L 644.2247 361.0879 L 643.9411 362.2341 L 644.8716 363.2154 L 646.1185 364.2055 L 647.2747 365.0984 L 648.4996 365.7702 L 649.2869 367.4822 L 649.6971 368.879 L 649.32 369.9251 L 648.9153 370.9063 L 648.1418 372.0261 L 647.2086 372.4917 L 645.0147 371.8876 L 643.286 369.9251 L 639.0083 372.8335 L 637.3897 377.9637 L 637.3511 382.3072 L 636.4069 385.3305 L 628.0689 382.8523 L 626.7862 381.983 L 625.7429 379.3516 L 625.3713 378.8713 L 624.807 378.1376 L 622.7892 378.1317 L 621.5753 378.3704 L 619.541 376.6613 L 618.3986 376.4285 L 615.7643 375.6653 L 612.461 375.4914 L 610.2891 375.5975 L 609.1439 376.0542 L 607.6575 376.7379 L 605.7168 375.512 L 604.3515 373.9002 L 603.6743 371.7137 L 603.3357 369.7601 L 602.8815 366.6925 L 601.0482 365.2752 L 595.7492 369.0646 L 585.8752 372.5388 L 583.7776 370.538 L 579.6705 353.9745 L 573.6778 356.6884 L 572.6098 357.2395 L 571.6518 357.4457 L 570.8838 357.6137 L 569.8653 357.7551 L 568.8991 357.985 L 567.9191 357.8288 L 567.03 357.6608 L 566.3969 357.5341 L 565.505 357.5489 L 564.9958 357.5371 L 564.3819 357.3161 L 562.8266 357.0568 L 561.2355 356.6236 L 560.0243 356.1227 L 558.5213 356.7827 L 557.4615 357.5754 L 556.2421 358.0174 L 555.2676 357.8907 L 553.7316 357.484 L 552.5397 356.712 L 551.8708 355.7337 L 551.5982 354.334 L 551.4661 353.0315 L 551.4936 351.9265 L 551.5652 350.6977 L 551.6643 349.0564 L 551.568 347.9868 L 551.4826 347.1764 L 551.301 346.2895 L 550.9211 345.1343 L 550.2852 344.4831 L 549.5227 343.8908 L 548.7189 343.5019 L 548.2509 343.1571 L 547.4747 342.3585 L 547.103 341.7368 L 546.1561 340.5227 L 545.5423 339.7094 L 545.0495 339.0612 L 544.3255 338.6545 L 543.5768 338.4541 L 542.8281 338.8077 L 542.272 339.3087 L 540.8654 339.7094 L 539.6101 339.8067 L 538.4567 339.2468 L 537.452 338.8402 L 536.5519 338.0799 L 535.5994 337.3344 L 535.2856 336.7509 L 534.7103 336.2471 L 533.6285 335.6901 L 532.2246 335.1361 L 531.0134 335.531 L 530.7216 336.5771 L 530.9776 339.8509 L 530.5344 340.9235 L 528.902 341.0443 L 527.333 340.343 L 526.9586 339.459 L 525.2024 337.9385 L 523.1351 336.415 L 521.255 335.2746 L 519.1189 334.8886 L 516.9827 334.9446 L 515.6614 335.4455 L 515.0944 336.0761 L 513.8832 337.6762 L 512.994 338.6987 L 512.1104 339.4295 L 511.2736 340.6848 L 510.1532 341.7014 L 509.1678 343.2838 L 507.4088 343.3398 L 505.2726 343.3958 L 503.888 344.7807 L 503.2852 345.6088 L 502.9879 346.5252 L 502.5915 347.7599 L 501.8345 348.7117 L 500.0672 349.6841 L 496.7722 350.5887 L 494.281 351.128 L 491.6604 351.679 L 489.0151 351.8794 L 485.5989 352.7811 L 483.9445 352.9962 L 482.3094 353.7417 L 480.1871 355.3153 L 478.2877 356.161 L 475.8515 357.0568 L 472.5097 357.1835 L 468.4412 357.2424 L 463.5936 357.1776 L 460.1665 356.1374 L 458.3359 356.0136 L 457.2761 356.4998 L 456.0292 357.3426 L 454.5977 358.094 L 453.0837 358.869 L 451.5505 359.2226 L 449.8658 359.3287 L 448.2059 358.6892 L 446.9039 358.0852 L 445.8413 357.5194 L 444.3659 356.6707 L 441.9655 355.7101 L 440.3882 355.3712 L 439.5651 355.7278 L 439.2843 356.0401 L 439.0063 356.3554 L 438.9347 357.1245 L 439.21 358.2443 L 439.7606 360.2039 L 439.8954 362.0249 L 440.3496 363.9845 L 440.6937 365.2575 L 440.9195 365.8085 L 440.8011 366.4214 L 440.6387 367.5117 L 439.9257 368.767 L 439.1164 369.9428 L 438.2466 370.7413 L 436.5757 370.9741 L 435.1965 370.3936 L 433.7101 369.7718 L 432.9476 368.8613 L 431.629 367.3172 L 430.8693 365.9175 L 430.4536 364.4471 L 429.4378 362.4168 L 427.778 362.1575 L 425.9033 362.5524 L 424.2737 364.0906 L 422.6937 366.6012 L 422.1679 368.4989 L 421.6063 369.6157 L 421.254 371.0861 L 420.4144 372.692 L 419.7152 373.6703 L 419.016 374.9964 L 418.0663 376.4403 L 417.1552 377.283 L 415.8917 377.3773 L 415.7183 378.1759 L 415.1072 379.2544 L 414.7548 380.5126 L 414.2648 381.1373 L 413.94 381.9329 L 413.0784 382.817 L 412.7261 383.9338 L 412.17 384.4229 L 411.5396 385.0506 L 411.0524 385.6782 L 410.4936 386.0967 L 408.9768 386.2263 L 408.096 386.5799 L 407.5922 386.851 L 407.0279 386.9925 L 406.0535 387.3136 L 405.1285 388.3921 L 402.9621 389.8184 L 401.8638 390.1366 L 401.1756 390.3075 L 400.2122 390.1896 L 399.4717 390.1425 L 398.1339 390.2898 L 396.7024 390.6582 L 395.0701 392.0048 L 394.0296 392.6943 L 392.4715 392.8358 L 390.5611 392.7886 L 388.4718 392.7828 L 386.9578 392.8358 L 384.64 393.048 L 382.8039 393.6285 L 380.6623 394.7364 L 375.9937 394.9073 L 374.254 394.9751 L 372.9767 395.6204 L 372.1509 396.7608 L 372.0986 397.4238 L 371.4434 398.5318 L 370.3974 405.1796 L 370.3754 405.2326 L 369.7725 409.028 L 363.2403 410.7194 L 361.5226 409.7912 L 360.4133 408.5978 L 358.9516 408.2442 L 357.0192 407.8817 L 354.7757 408.0939 L 352.6341 407.8788 L 351.6596 408.1263 L 350.9412 408.9573 L 350.3163 410.3894 L 349.6859 411.5062 L 349.5208 411.6859 L 341.7443 411.2292 L 341.692 411.1968 L 340.6129 410.6399 L 339.6054 410.5102 L 338.7246 409.912 L 337.8712 409.7853 L 336.7343 410.136 L 336.5527 411.6241 L 337.128 412.9442 L 337.439 414.7535 L 338.6833 416.9458 L 341.2213 418.8199 L 342.0526 419.7305 L 342.1187 421.2009 L 341.8489 421.7195 L 341.1415 422.1792 L 340.5827 422.8068 L 341.2103 422.9483 L 342.182 423.2989 L 344.1997 424.2861 L 345.3091 425.0581 L 347.9049 426.7731 L 349.0142 428.2465 L 349.6364 429.9261 L 349.3528 432.0949 L 348.5793 434.962 L 344.7916 446.1743 L 343.6134 444.9809 L 342.4352 443.0891 L 341.6012 441.8986 L 340.7698 440.6374 L 338.7576 438.0414 L 337.651 435.7311 L 336.371 434.6232 L 335.2589 433.7804 L 333.3127 432.7962 L 331.3252 431.6116 L 329.0019 431.5262 L 328.0302 430.8219 L 327.1273 429.5607 L 326.9897 427.2033 L 327.499 425.288 L 325.8005 425.9775 L 324.1544 426.7554 L 322.8524 427.8045 L 322.2936 430.5921 L 322.3899 432.6371 L 322.3734 435.2508 L 321.8504 436.9894 L 321.498 439.5118 L 321.0603 440.6404 L 319.6289 440.8525 L 317.0992 441.5008 L 312.4939 441.0971 L 310.7679 441.6835 L 309.5677 442.6088 L 308.9181 443.8464 L 308.4749 445.75 L 308.8025 447.7803 L 309.0364 448.9442 L 308.9731 449.3302 L 305.356 451.2132 L 305.0698 451.2338 L 304.4229 451.1778 L 304.032 450.7948 L 302.9887 449.5719 L 301.4664 447.6948 L 300.2965 446.3099 L 299.3799 445.3227 L 298.5073 445.7352 L 296.6382 446.6988 L 295.6967 447.2057 L 293.8276 448.1958 L 292.1815 449.1505 L 291.2318 449.5453 L 287.9451 449.9726 L 287.177 449.6013 L 286.0347 448.3932 L 285.2859 446.9817 L 284.9941 445.7971 L 284.6308 444.6803 L 284.0555 443.0537 L 282.2332 441.9723 L 280.5237 440.5755 L 279.4529 440.7641 L 278.4482 441.2769 L 277.4379 441.822 L 276.7029 442.9123 L 275.6294 443.2806 L 274.6054 442.9712 L 273.6061 441.934 L 272.5711 440.2779 L 272.4004 439.4086 L 270.413 437.9264 L 268.9458 437.3135 L 267.7318 437.6583 L 266.9721 438.3655 L 266.5234 439.886 L 266.7711 442.0902 L 266.3086 443.6431 L 266.116 445.0752 L 265.7306 446.6428 L 264.8414 447.9924 L 263.7734 448.9236 L 262.2704 449.398 L 260.7812 449.6426 L 259.1598 449.2978 L 256.9246 448.5435 L 255.1601 449.1063 L 253.4286 448.9295 L 251.0833 448.5317 L 249.2968 448.9354 L 247.8957 448.1339 L 246.423 448.8263 L 244.8594 449.8518 L 242.3544 448.903 L 239.855 449.6043 L 239.6375 450.7476 L 240.6918 451.7613 L 241.8259 452.7278 L 241.5672 453.4232 L 240.0945 453.6796 L 238.3905 453.9418 L 236.5159 454.7375 L 235.4726 455.9603 L 234.9496 457.1714 L 234.2146 457.7431 L 233.2292 457.3541 L 232.3538 456.0429 L 231.1839 454.9732 L 229.8626 454.2129 L 227.8256 453.9418 L 225.6124 454.1157 L 223.6607 455.2266 L 221.8494 455.6156 L 218.9563 455.757 L 218.7113 455.7688 L 217.0569 454.6196 L 216.1925 454.0067 L 214.7253 453.3083 L 213.1067 453.0018 L 211.0642 453.3407 L 210.3403 454.3662 L 209.6768 455.757 L 209.7319 457.2304 L 209.2502 458.6124 L 208.5455 459.797 L 207.5903 460.5484 L 206.7259 460.5454 L 205.6001 460.457 L 204.3035 460.6279 L 203.4364 461.235 L 203.0015 462.1013 L 203.0841 463.669 L 202.7372 464.6237 L 202.0435 464.7091 L 201.0939 463.9253 L 200.6424 462.6848 L 199.9129 462.1013 L 198.3191 462.2958 L 197.6557 463.2594 L 197.1464 464.6119 L 196.7115 465.7405 L 195.8444 465.9998 L 194.7213 465.9114 L 193.945 464.2554 L 192.5356 463.5423 L 190.7464 463.9017 L 189.9673 464.1611 L 188.4946 464.8535 L 187.9 466.1088 L 188.8112 467.0371 L 189.6425 467.5262 L 191.184 468.8817 L 192.2906 469.5565 L 192.2383 471.2184 L 190.8344 473.3489 L 189.593 473.8587 L 188.7479 473.3224 L 188.7369 471.9846 L 187.9634 470.5053 L 187.1843 470.0692 L 185.0207 470.6704 L 183.3773 470.582 L 182.4744 469.5035 L 182.3863 468.2452 L 182.3258 467.0901 L 182.1881 466.6392 L 181.5853 466.5155 L 181.0348 466.4065 L 179.9061 466.1825 L 178.1554 467.096 L 175.6477 467.703 L 174.6319 469.2235 L 173.6492 471.3363 L 172.5426 471.5485 L 169.8504 470.4788 L 169.4485 470.3757 L 167.4335 469.9455 L 166.1618 470.7146 L 165.0855 472.1084 L 163.7339 473.234 L 162.9191 473.7615 L 161.7629 473.6731 L 160.1223 473.2428 L 158.9496 472.5032 L 158.7735 471.0122 L 158.7294 469.8895 L 158.8836 468.8846 L 159.013 468.0566 L 158.8505 467.3524 L 159.4727 466.4124 L 159.3323 464.9802 L 155.4619 463.1739 L 151.1264 467.759 L 150.3061 467.4908 L 149.2243 466.4654 L 148.4205 465.434 L 147.3249 465.1571 L 146.4578 465.7641 L 144.3712 466.766 L 142.7774 467.0017 L 141.6102 466.43 L 140.9331 464.9537 L 141.3019 463.6041 L 141.6625 462.6612 L 141.3074 462.007 L 140.2724 461.4383 L 139.1878 461.618 L 138.3345 462.0925 L 137.4646 463.6572 L 135.791 464.8712 L 133.9742 464.4322 L 132.0748 463.0354 L 131.1857 461.4943 L 130.7645 460.6987 L 129.9965 458.8187 L 129.1239 457.8639 L 129.9827 456.5939 L 131.4279 456.4024 L 132.3969 454.7581 L 132.3996 453.3054 L 132.7878 451.3694 L 132.6006 449.4304 L 132.6033 447.3972 L 133.1841 446.1389 L 133.8641 443.9112 L 132.262 441.2268 L 131.2793 437.8675 L 130.7287 435.5779 L 130.1727 433.2471 L 129.6139 431.0576 L 128.9862 429.1511 L 128.4412 426.9264 L 130.3543 418.7286 L 130.4672 418.6048 L 130.503 415.3281 L 130.9407 412.7202 L 131.6289 408.3679 L 107.4599 409.8943 L 104.9825 408.9131 L 102.9097 408.4593 L 102.8188 406.5027 L 102.2463 404.2307 L 101.8636 403.167 L 100.8066 401.7113 L 99.7468 400.8361 L 98.7861 400.1554 L 98.398 398.2695 L 98.0594 396.7461 L 97.4951 395.3376 L 96.9142 393.6078 L 95.9701 392.2347 L 95.0919 391.2888 L 93.922 389.8684 L 92.0942 389.0581 L 89.592 389.2703 L 88.0587 388.0326 L 87.0402 386.5917 L 86.8393 384.9445 L 85.9226 382.7845 L 85.1023 379.3722 L 85.2592 377.3066 L 85.3418 374.5514 L 85.4987 371.8729 L 85.8345 370.6352 L 87.3843 368.0804 L 88.7166 366.4362 L 89.9471 365.1013 L 91.362 363.9285 L 93.3137 362.738 L 94.5662 361.5564 L 94.5992 360.3895 L 95.8324 359.6911 L 95.8902 359.5939 L 96.4435 358.0086 L 96.46 357.8465 L 96.0802 357.7316 L 95.5159 357.6991 L 94.4506 358.3091 L 94.2001 358.4181 L 93.6688 358.3857 L 92.9173 358.1028 L 92.0942 357.8818 L 91.5382 357.7551 L 91.095 357.1687 L 91.3014 356.2052 L 91.5106 355.4832 L 91.6153 354.6552 L 91.1693 353.7947 L 90.2747 352.8724 L 90.2774 352.0267 L 90.6986 351.5287 L 91.2574 351.2134 L 91.4941 350.8598 L 91.6153 350.5209 L 91.8575 349.9375 L 92.0942 349.469 L 92.5264 349.0712 L 92.7797 348.635 L 93.1375 347.975 L 93.1816 347.3974 L 92.8209 346.8818 L 92.0612 346.6342 L 90.7289 346.6372 L 90.2471 346.3631 L 90.0462 345.9329 L 89.7709 345.1609 L 89.7847 343.8496 L 89.7929 343.5755 L 90.1673 343.3457 L 92.0942 342.0285 L 92.854 341.2771 L 93.3082 340.6936 L 93.6743 339.9157 L 93.4183 339.6328 L 92.9861 339.2409 L 92.7989 338.8667 L 92.8843 338.407 L 92.6365 337.9886 L 92.0942 337.7911 L 91.362 337.4935 L 90.6738 337.6909 L 90.0049 338.4512 L 89.0139 338.5514 L 88.4138 337.8825 L 87.9872 336.9248 L 87.2439 335.7107 L 86.1676 335.4632 L 85.3776 334.535 L 86.0905 333.6038 L 86.9081 332.8023 L 87.4476 331.9655 L 86.9108 330.9783 L 86.4236 329.8438 L 85.3611 328.9804 L 85.0005 328.2261 L 85.1023 327.7605 L 85.6088 327.4482 L 86.4319 327.3863 L 87.2109 326.9472 L 87.7559 326.2989 L 88.3753 325.5416 L 88.791 325.1261 L 89.3222 324.4808 L 90.0132 323.8325 L 90.6298 323.3463 L 91.0207 323.0811 L 91.362 322.7599 L 92.0942 322.8984 L 94.4726 321.5783 L 95.8104 319.8574 L 97.2391 318.6168 L 99.3366 317.8566 L 101.5278 317.1906 L 103.3419 315.2812 L 104.1071 313.7518 L 105.3458 313.1802 L 106.7387 309.2934 L 106.6479 307.1895 L 107.3195 304.1278 L 108.4674 301.4522 L 109.04 300.6861 L 109.0428 299.5369 L 109.6181 297.3386 L 110.1906 296.764 L 111.0467 298.202 L 112.9461 300.4091 L 115.6768 302.3687 L 117.3863 303.6151 L 118.6195 305.9136 L 119.7591 307.4488 L 121.2786 309.0783 L 123.0871 310.1333 L 125.1765 311.4799 L 126.0326 312.1518 L 128.1274 311.9632 L 132.5097 314.7478 L 134.8881 315.9029 L 138.4116 315.3342 L 139.843 314.0936 L 140.5119 312.5643 L 142.3232 311.6125 L 144.5887 310.0949 L 145.1447 309.8946 L 145.7861 309.3435 L 149.3289 307.6227 L 151.4017 307.2337 L 153.469 306.6561 L 161.4766 302.1624 L 163.5247 302.0887 L 166.9518 302.1919 L 169.9991 302.4865 L 172.4738 302.2066 L 173.9024 301.9208 L 176.2835 301.9266 L 177.8994 302.9845 L 180.1842 303.8509 L 182.4689 304.0453 L 187.9744 305.3831 L 189.5186 305.9047 L 190.9803 306.0815 L 192.0126 305.1327 L 195.4755 301.2577 L 191.0712 297.4123 L 192.2026 296.8642 L 195.1727 294.2063 L 196.9372 291.2919 L 199.3982 288.4572 L 201.1819 285.3661 L 201.6609 283.3417 L 202.6161 281.1994 L 204.5155 279.0601 L 203.1116 276.8825 L 201.4545 275.6861 L 198.3742 274.9642 L 196.4775 274.3631 L 194.3469 273.8827 L 193.4 273.4054 L 191.7401 273.2816 L 189.7251 273.1579 L 188.4231 272.2002 L 187.1183 271.9615 L 182.7359 270.9979 L 179.5373 270.1552 L 177.525 268.3635 L 176.713 266.7841 L 177.3819 263.584 L 178.5298 260.266 L 179.741 256.285 L 178.5408 255.2566 L 176.7405 254.9501 L 174.2768 255.4275 L 171.3341 254.6348 L 167.9483 253.353 L 167.3537 253.9453 L 165.2203 254.2989 L 162.9686 253.2204 L 161.1931 252.8609 L 159.1781 252.0211 L 157.0503 249.3955 L 156.2244 248.2021 L 153.4992 247.601 L 150.419 246.2838 L 148.6462 243.897 L 146.634 241.9875 L 144.9796 240.5554 L 143.7931 239.8364 L 142.0204 238.2835 L 141.1808 236.3652 L 141.1478 235.2425 L 140.8642 234.2612 L 140.3165 233.5805 L 138.0234 232.2339 L 137.7674 231.2526 L 138.307 229.9826 L 138.1528 224.9879 L 138.5134 223.1491 L 139.3723 221.9321 L 139.6586 220.7269 L 140.4266 219.7928 L 141.4643 219.1652 L 142.8958 218.9471 L 144.3272 219.2271 L 145.6485 219.616 L 146.3614 220.005 L 147.4625 220.338 L 148.7838 220.6179 L 153.1937 220.3409 L 154.4324 219.0709 L 155.4702 218.2517 L 156.6263 217.1644 L 157.1439 216.3363 L 157.554 215.0958 L 158.0991 214.0467 L 158.8726 213.1067 L 160.4168 212.2816 L 161.3528 211.8956 L 163.7201 211.7895 L 164.656 211.6275 L 164.879 210.7405 L 165.157 209.3585 L 164.7331 204.8648 L 164.6258 203.4769 L 164.6203 202.914 L 165.3084 202.4868 L 165.9691 201.5969 L 166.8665 200.206 L 167.8492 199.2218 L 168.7438 198.5411 L 169.3412 197.772 L 169.7623 196.1012 L 170.3679 195.0109 L 170.7891 194.177 L 170.8414 193.5553 L 171.0093 192.0023 L 171.2048 191.3128 L 171.6507 190.694 L 174.6182 188.1863 L 174.6649 187.9035 L 174.5548 187.2404 L 173.952 186.0765 L 172.9142 184.7151 L 172.6114 182.8292 L 173.3684 181.294 L 174.5576 180.6457 L 175.4467 180.1212 L 175.989 179.3933 L 176.7488 178.3561 L 177.5801 177.9524 L 178.3508 177.5664 L 179.9061 176.9829 L 181.3816 176.7884 L 182.5543 176.1107 L 183.102 174.8436 L 183.4434 173.5205 L 183.5838 172.2328 L 183.6801 170.1583 L 184.2857 168.7734 L 185.7144 168.2282 L 187.1155 168.1575 L 187.9413 167.6595 L 188.9901 167.1085 L 190.4243 166.1184 L 191.2033 165.644 L 191.8667 164.9485 L 192.7283 164.0822 L 194.0386 162.6678 L 195.3957 161.6747 L 196.3316 161.0471 L 197.8181 160.2367 L 199.8992 159.6621 L 201.0883 159.5796 L 201.7545 159.3763 L 202.5143 159.2673 L 203.0428 159.0728 L 203.5465 158.9431 L 203.9815 158.566 L 204.6394 158.1387 L 205.8919 157.5729 L 206.8691 156.7596 L 207.7444 155.8373 L 208.6556 154.9002 L 209.82 153.8394 L 210.877 152.6902 L 212.3828 151.3288 L 215.2071 149.5225 L 216.8229 149.0363 L 218.4663 149.3516 L 219.9748 150.0352 L 221.2713 148.7416 L 222.3752 146.673 L 223.267 145.0847 L 225.1472 143.7233 L 226.5731 143.7263 L 227.0741 143.7292 L 229.4056 144.7193 L 230.0635 145.0376 L 231.6684 145.8627 L 233.1713 146.6671 L 234.8312 147.5128 L 236.5765 148.0197 L 238.5942 148.2642 L 240.5569 147.6277 L 241.881 147.0119 L 242.949 146.0247 L 244.7878 144.3539 L 246.0321 142.7215 L 246.8359 140.9534 L 247.4029 139.1677 L 247.8764 137.2818 L 248.7876 135.1042 L 249.8942 134.2909 L 251.9147 134.5149 L 255.0032 135.9587 L 256.4236 136.7956 L 258.3313 136.7632 L 261.1858 137.0932 L 263.1678 137.5411 L 265.447 138.1305 L 266.8812 138.823 L 268.3842 139.763 L 270.0193 140.6499 L 271.5416 140.3936 L 273.1106 139.2826 L 274.3714 138.8406 L 275.533 138.2307 L 276.8185 137.8653 L 277.8205 137.9213 L 279.1914 138.1688 L 280.4439 138.49 L 282.0322 139.3475 L 282.8277 140.1048 L 283.8463 140.7531 L 284.9831 140.1961 L 285.7979 139.3386 L 286.1283 138.49 L 285.9851 137.2907 L 286.1751 135.7554 L 286.343 134.3587 L 287.2761 133.4069 L 288.4268 133.1623 L 289.2031 133.124 L 290.7473 132.9619 L 292.1237 132.8559 L 292.933 132.2636 L 293.7891 131.6448 L 294.5406 131.076 L 295.9472 129.9298 L 297.1144 129.2491 L 298.4742 129.1784 L 300.0213 129.9062 L 301.5187 130.8079 L 302.8566 131.8333 L 304.0678 132.4993 L 305.1716 132.5376 L 311.5029 130.5309 L 314.0987 126.2729 L 317.7516 123.9391 L 319.2298 124.5756 L 320.452 127.7227 L 324.0498 130.0241 L 327.2815 128.6214 L 328.5202 124.7936 L 330.9812 125.4036 L 332.041 132.2812 L 333.7614 135.7466 L 335.369 136.6601 L 339.1265 134.0021 L 339.955 133.5365 L 344.1695 133.5307 L 351.1256 129.2638 L 351.2687 129.2785 L 353.2424 129.2167 L 354.561 130.1861 L 355.6593 134.394 L 356.3695 134.7093 L 356.9421 135.1955 L 357.2504 135.6493 L 358.3267 137.2524 L 359.1966 138.2218 L 360.1793 138.8259 L 361.1648 138.8907 L 361.3547 138.8583 L 366.8712 140.6794 L 367.997 140.644 L 369.2936 140.9446 L 372.1702 140.3346 L 375.0825 140.0547 L 378.1133 140.1519 L 383.5582 141.7314 L 386.8257 142.524 L 389.5509 142.9985 L 391.965 143.0839 L 394.5333 143.4817 L 397.6714 143.8795 L 398.7285 145.1613 L 398.6982 145.2262 L 398.4614 145.6033 L 398.1366 145.8892 L 397.2255 145.4118 L 396.8153 145.5827 L 396.5703 145.4825 L 396.8346 146.3223 L 396.5318 147.1622 L 396.6171 147.2506 L 396.5923 147.9254 L 396.3226 148.164 L 395.8821 148.3644 L 395.995 148.5884 L 395.6867 148.6178 L 395.3343 148.444 L 394.8691 148.6296 L 394.8746 148.8742 L 394.5581 149.0569 L 394.6296 149.2838 L 394.4177 150.7336 L 394.6186 151.5233 L 394.9242 151.3553 L 395.4417 150.9133 L 395.4389 150.7071 L 395.5931 150.7689 L 395.7748 151.2669 L 395.7307 151.7237 L 395.6922 151.9535 L 395.9372 151.9918 L 396.24 152.1126 L 396.6969 152.3395 L 397.2365 152.4044 L 397.6989 153.0762 L 397.9439 153.7716 L 397.9302 153.9897 L 397.9494 154.2431 L 398.3018 155.3747 L 398.0485 155.7636 L 398.1229 155.9581 L 398.1201 156.4031 L 398.288 156.6889 L 398.4614 157.455 L 398.2853 158.1475 L 398.2082 158.5188 L 398.3513 159.3586 L 398.5605 159.8949 L 398.4917 160.0334 L 398.4945 160.3104 L 398.5688 160.8909 L 398.8165 161.386 L 398.9046 161.5598 L 399.1551 161.8486 L 399.1056 162.0372 L 398.7477 162.1492 L 398.8386 162.4615 L 398.8083 162.7473 L 398.8854 162.9124 L 398.9101 163.0332 L 399.568 163.7934 L 399.5708 164.5684 L 399.5185 164.5831 L 399.5212 164.648 L 398.5247 164.9191 L 398.5936 165.1401 L 398.745 165.4023 L 398.7092 165.8679 L 398.9349 166.4307 L 399.1083 166.914 L 399.0092 167.135 L 399.1854 167.5976 L 399.4111 168.2724 L 399.5102 168.5671 L 399.7552 169.681 L 399.7222 169.958 L 399.4579 170.5119 L 398.8523 170.9127 L 398.6211 171.2133 L 398.5055 171.7083 L 398.5771 172.165 L 398.7395 172.3507 L 399.0643 172.0943 L 399.2212 172.0737 L 399.5873 172.2151 L 399.6313 172.6542 L 399.9204 172.9047 L 399.9479 173.1286 L 399.9837 173.438 L 399.9672 173.771 L 399.067 174.8613 L 398.7642 175.9192 L 398.2275 176.3612 L 398.0403 176.5439 L 397.6631 176.6912 L 397.7072 176.8209 L 397.743 176.8621 L 398.3183 177.2481 L 398.3651 177.2864 L 398.3183 177.5399 L 398.3981 178.0054 L 398.2137 178.5064 L 398.3376 178.9307 L 398.3073 179.2932 L 398.3321 179.797 L 398.6541 180.4394 L 398.8826 180.8873 L 398.9294 181.5828 L 398.9762 181.6888 L 399.2019 181.6122 L 399.5763 181.4443 L 400.4351 181.2999 L 399.5956 183.3095 L 399.546 183.3596 L 399.6561 183.6248 L 399.8048 184.0492 L 399.9534 184.9155 L 400.3113 185.2691 L 400.325 185.3752 L 400.4379 185.7671 L 401.2912 187.2346 L 402.0923 188.6195 L 402.2024 190.0015 L 402.4254 191.8491 L 402.9952 193.6938 L 403.3365 195.1936 L 404.8202 197.0412 L 406.0782 198.659 L 408.0272 199.5872 L 409.7476 200.0528 L 411.691 201.5556 L 413.7556 202.254 L 416.233 203.6271 L 416.8744 203.5269 L 418.7463 203.7538 L 420.6181 203.6478 L 422.2698 203.5417 L 424.4774 201.7795 L 426.4594 201.5644 L 428.334 200.9044 L 435.9315 201.0664 L 436.6582 200.5714 L 437.5969 200.0675 L 438.2741 199.6933 L 439.1687 199.5371 L 439.9477 199.3632 L 440.669 199.2513 L 441.5746 199.322 L 442.0481 199.7434 L 442.439 200.2148 L 443.1134 200.3239 L 443.9172 199.9585 L 444.7925 199.5459 L 445.6652 199.3868 L 446.2625 199.2719 L 446.7222 199.1128 L 447.4076 198.5735 L 447.9582 198.2199 L 448.4922 198.1492 L 449.0703 198.1639 L 449.9897 198.3172 L 451.1348 198.6413 L 453.6315 198.0136 L 455.396 197.2593 L 457.4165 195.0728 L 460.8712 190.2785 L 462.5531 189.1028 L 463.2248 188.428 L 464.9039 188.4339 L 465.6609 187.6766 L 466.4179 186.8367 L 467.3429 186.3329 L 469.4322 186.3564 L 472.1766 187.488 L 473.6989 188.923 L 473.7952 190.6616 L 473.6879 192.5003 L 472.4134 194.8312 L 470.3516 196.7082 L 468.4715 197.8987 L 465.9087 198.6708 L 468.1439 200.6539 L 470.013 202.4514 L 471.9757 203.6949 L 477.4096 206.7801 L 479.2456 205.5602 L 479.9641 203.5181 L 480.4789 201.476 L 482.6673 199.0892 L 483.8069 198.0785 L 485.4117 196.9499 L 486.5293 196.0128 L 487.7405 195.4942 L 488.1892 194.6072 L 489.5381 193.4138 L 490.4217 191.2421 L 491.3741 189.8807 L 492.8964 188.7226 L 494.1241 188.1922 L 495.1867 187.5616 L 496.6236 186.7012 L 497.7742 186.2739 L 499.0102 185.4105 L 499.536 182.4137 L 500.059 179.7646 L 500.5352 177.8257 L 500.3095 175.8926 L 499.9902 173.8476 L 502.3658 173.0697 L 503.5219 170.9039 L 504.4193 170.9156 L 504.2239 171.5993 L 506.2416 169.7576 L 508.8127 173.494 L 512.2123 176.1608 L 514.5851 176.4201 L 516.5038 176.6411 L 517.7865 178.0084 L 518.783 179.5201 L 520.2089 180.9639 L 522.279 181.9039 L 523.9939 182.6996 L 524.4839 186.0058 L 525.7612 189.1705 L 525.8933 192.5563 L 525.585 196.614 L 526.7439 201.9593 L 527.4789 202.0271 L 528.6515 202.5074 L 529.3149 202.5133 L 530.0582 201.7766 L 531.7621 201.3876 L 533.667 201.034 L 534.7626 201.1401 L 536.417 201.3228 L 538.176 201.3199 L 539.7615 201.1224 L 541.4352 199.9084 L 542.5253 198.7916 L 543.7557 197.9753 L 545.2532 197.4184 L 546.3984 197.1974 L 547.1278 196.667 L 547.5297 195.6032 L 548.6363 194.9108 L 549.6879 194.3391 L 550.9679 194.5454 L 551.8598 194.4923 L 552.4929 194.2713 L 552.614 193.3048 L 553.2802 192.4001 L 553.7619 191.6753 L 554.7887 190.9533 L 555.8705 190.8973 L 556.5944 190.2932 L 556.8972 189.6921 L 557.6818 189.1499 L 558.5241 188.9112 L 559.1187 188.8582 L 559.1242 187.8917 L 559.2453 186.8633 L 559.3692 186.0794 L 559.8537 185.3546 L 561.965 183.1858 L 562.8707 182.4019 L 564.437 181.9246 L 565.5821 181.3234 L 567.1511 179.6969 L 568.4174 178.8541 L 569.0808 177.6459 L 569.747 176.7442 L 570.4104 176.0194 L 570.6526 175.1736 L 571.3243 173.9743 L 571.4481 172.5245 L 571.9932 171.2575 L 572.7227 169.5071 L 573.6283 168.0573 L 574.1155 166.6694 L 575.324 165.0399 L 576.2902 163.7139 L 577.4353 163.0538 L 579.376 160.4843 L 579.3842 157.7586 L 579.6072 155.9021 L 579.7201 154.5938 L 580.8129 152.5252 L 580.7083 150.5597 L 580.7138 148.8153 L 580.3945 147.2859 L 580.5101 145.2144 L 582.4398 140.9741 L 582.9187 139.542 L 582.927 137.6325 L 583.0536 135.1248 L 582.7013 133.2154 L 582.4673 132.735 L 581.9938 131.5416 L 581.7598 130.7047 L 582.3076 127.2041 L 582.2608 124.496 L 583.8326 123.6592 L 585.8587 122.0444 L 586.7726 120.1201 L 587.992 117.4887 L 588.7077 114.9546 L 589.217 113.2337 L 589.2197 112.0167 L 588.5178 110.8999 L 592.011 108.5307 L 595.0417 107.8294 L 598.1743 106.6242 L 601.0096 103.9957 L 602.4493 102.4899 L 603.9138 102.1629 L 605.436 101.9419 L 607.5253 101.7975 L 609.8652 101.7061 L 613.997 101.8181 L 616.1854 102.2748 L 618.1233 103.2826 L 620.309 103.9397 L 621.8946 106.2971 L 622.9984 108.9344 L 626.7779 113.5637 L 629.4948 116.4132 L 632.0108 117.9425 L 634.1304 118.3551 L 637.9677 117.5565 L 642.7217 115.1372 L 646.5893 112.4174 L 649.2897 109.7831 L 652.6535 106.9189 L 656.978 103.9574 L 659.9207 102.8259 L 662.1449 101.8181 L 664.2067 99.0069 L 665.6987 94.2745 L 670.7059 93.14 L 678.9916 97.5365 L 683.974 100.274 L 686.3414 101.2877 L 688.2628 102.1687 L 687.4645 103.3032 L 685.7936 105.8934 L 683.6602 109.2261 L 684.4007 109.4442 L 688.1774 111.3596 L 691.8248 112.9537 L 693.6333 113.7611 L 694.9409 114.2591 Z" fill="#000000" fill-opacity="1" stroke="#000000" stroke-width="0" paint-order="fill" stroke-opacity="1" stroke-dasharray="" stroke-linecap="butt" stroke-linejoin="miter" stroke-miterlimit="10" transform="matrix(1.100000023841858,0,0,1.100000023841858,-42.500064849853516,-28.349946975708008)" clip-path="none" style="filter: url(#f1)"/>
<path d="M 694.9409 114.2591 L 696.3668 114.7394 L 703.2706 114.5774 L 704.5809 114.5774 L 707.2566 115.4054 L 708.5586 116.0095 L 710.5103 116.3513 L 712.3684 117.1764 L 713.9952 118.2342 L 715.6166 120.1113 L 717.2407 121.6348 L 718.9859 122.342 L 721.5019 121.9501 L 723.8335 120.789 L 725.6998 119.8815 L 727.5662 118.7175 L 729.1985 117.4386 L 731.0649 116.7432 L 732.9285 115.9329 L 735.026 115.3553 L 736.8869 115.4791 L 737.776 115.0665 L 738.9982 115.6146 L 740.1984 115.4791 L 740.4792 115.4555 L 742.5079 114.8838 L 743.4934 114.0646 L 743.4907 114.8367 L 747.3472 119.2361 L 750.7056 123.5737 L 751.2781 126.267 L 751.9635 129.6587 L 752.5361 132.349 L 752.9931 134.9215 L 753.5684 136.7956 L 753.907 139.3681 L 754.9447 142.6448 L 755.7485 145.3381 L 756.1917 151.7237 L 756.7671 153.4799 L 756.412 155.3511 L 755.8229 156.8686 L 755.2365 158.7369 L 755.3439 160.8408 L 754.9943 161.4243 L 754.7355 163.1245 L 753.896 164.8572 L 751.8644 166.7077 L 749.9513 168.4345 L 749.5246 171.1867 L 749.4806 173.6148 L 748.9108 176.2138 L 747.6473 179.6202 L 747.0472 182.01 L 745.6295 184.7151 L 745.58 185.5107 L 745.5772 186.6364 L 745.6956 187.8887 L 745.6075 189.4328 L 744.6496 190.7411 L 746.7416 193.5877 L 748.0079 194.9608 L 748.8667 196.446 L 749.0952 198.2435 L 749.5191 199.0096 L 750.4798 198.3289 L 751.2451 197.4479 L 752.5857 195.9834 L 754.5263 195.3675 L 756.4918 195.2585 L 758.3691 195.4264 L 760.8493 195.5148 L 762.4349 195.2467 L 764.0673 194.5513 L 765.0005 193.735 L 763.4507 203.9542 L 760.9787 211.8956 L 760.263 217.0376 L 759.6739 219.3744 L 759.7042 220.6356 L 760.0043 220.9627 L 760.5988 221.1513 L 760.9787 221.3104 L 760.6319 221.4283 L 757.7966 222.492 L 757.2378 222.5716 L 757.9204 224.9142 L 758.0663 225.3916 L 758.76 226.4288 L 758.9417 227.1331 L 758.9692 227.3688 L 759.0436 227.634 L 759.2528 231.8832 L 759.6987 235.6049 L 760.3015 236.7541 L 758.3609 236.8573 L 757.3066 238.4249 L 756.2385 239.6242 L 754.6007 241.0328 L 751.7268 240.6615 L 750.6698 240.4758 L 749.6678 241.1123 L 748.1786 241.8077 L 746.0259 242.7389 L 743.7384 243.0866 L 742.2217 242.8155 L 740.4847 241.9551 L 738.2687 240.8795 L 736.1161 240.1841 L 733.4212 240.7587 L 731.1722 241.8372 L 727.7258 242.8126 L 726.2118 243.2723 L 724.2932 244.006 L 722.146 244.4568 L 720.3485 244.339 L 718.8593 244.118 L 716.7755 243.5728 L 715.5533 242.6888 L 715.3661 243.2104 L 715.2339 243.6936 L 715.1376 244.613 L 714.8623 246.1836 L 714.733 247.2651 L 714.565 249.0331 L 714.5568 249.976 L 713.6979 249.8729 L 711.3333 249.5134 L 710.6864 253.5917 L 710.1662 254.5464 L 708.9164 255.7162 L 708.6136 255.4893 L 707.9034 259.4114 L 709.6872 260.6874 L 710.2928 260.6991 L 710.4277 260.7374 L 710.7773 260.2336 L 712.049 262.4082 L 712.1702 262.6705 L 712.1316 262.9711 L 711.6031 266.7782 L 712.4124 267.4766 L 712.6959 267.5503 L 713.1006 267.6681 L 714.009 270.7916 L 714.3255 272.5361 L 714.5705 275.2265 L 714.6862 277.0917 L 714.5733 277.3569 L 712.4152 276.3403 L 711.0994 275.8276 L 710.5901 275.8453 L 711.27 277.3628 L 713.1584 279.5139 L 713.519 280.7869 L 714.5953 281.8654 L 715.5175 283.5745 L 716.2855 284.6618 L 716.7424 286.0586 L 717.1223 287.5349 L 717.4251 289.1644 L 717.4224 290.6378 L 717.1664 291.2448 L 716.5773 291.2772 L 716.3681 291.5483 L 716.335 292.3616 L 715.7322 292.6003 L 714.2953 293.2721 L 713.4832 293.6464 L 711.7765 294.6542 L 711.1929 294.8693 L 711.0966 294.2917 L 711.2508 293.2397 L 708.9963 294.0972 L 705.6765 294.8634 L 703.3559 296.2513 L 703.8597 298.5674 L 703.6037 298.4436 L 703.2761 298.6175 L 703.1082 299.5752 L 703.6312 300.5181 L 704.1625 301.3137 L 704.1515 301.7322 L 705.1727 305.3213 L 705.7013 306.3173 L 705.66 306.9685 L 705.3214 308.6569 L 705.1535 312.2254 L 704.9911 314.3176 L 704.2974 314.627 L 703.2156 315.0101 L 702.5081 318.3163 L 701.9658 319.2445 L 701.3437 320.2523 L 701.4153 322.1146 L 701.5612 324.3629 L 702.1723 326.4581 L 702.0924 327.622 L 702.3952 329.0983 L 702.8522 330.8045 L 703.0807 331.8918 L 703.5376 333.598 L 703.5321 335.1509 L 703.2183 336.6242 L 702.9045 337.6291 L 701.7428 339.0995 L 701.2006 340.0277 L 703.4963 346.0685 L 710.8791 358.0852 L 711.4957 361.9336 L 712.5666 364.0405 L 714.2347 364.8243 L 714.8293 366.9577 L 715.8395 368.378 L 716.77 370.482 L 718.2207 372.5418 L 720.8412 374.1124 L 725.0392 377.784 L 725.5704 379.0157 L 727.4368 381.9801 L 729.3004 384.4966 L 732.678 389.8066 L 735.5491 394.592 L 737.6108 400.73 L 737.3108 400.8126 L 737.0575 400.8715 L 736.7547 400.7713 L 736.0473 400.2704 L 735.6509 400.1407 L 735.1416 399.9551 L 734.7177 399.9521 L 734.4617 400.1378 L 734.2332 400.3499 L 734.0075 400.3499 L 733.5093 400.4619 L 733.1817 400.7448 L 732.9367 401.0601 L 732.766 401.0895 L 732.4743 401.1072 L 732.1549 401.0365 L 731.731 400.8951 L 731.453 400.8302 L 731.1282 400.7212 L 730.8336 400.7801 L 730.2005 400.7772 L 729.8592 400.8538 L 729.5949 400.786 L 729.1765 400.786 L 728.9095 400.8833 L 728.7553 401.0041 L 728.5681 401.1721 L 728.1828 401.2487 L 727.8166 401.3783 L 727.4753 401.5787 L 726.7541 401.9853 L 726.2366 402.2682 L 725.2979 402.7662 L 724.0619 403.3644 L 723.6738 403.3261 L 723.115 403.3232 L 722.7682 403.2436 L 722.603 403.058 L 722.4654 402.8163 L 722.4654 402.4303 L 722.5672 402.2682 L 723.0627 402.0295 L 723.6628 401.9264 L 723.8252 401.7378 L 723.7922 401.3842 L 723.605 401.0041 L 723.0654 400.4766 L 722.4736 400.0494 L 721.7111 399.6162 L 721.1578 399.4217 L 720.6843 399.1035 L 720.2687 398.685 L 719.9659 398.3049 L 719.6521 397.9454 L 719.1538 397.692 L 718.6914 397.5623 L 718.083 397.4739 L 717.6921 397.5712 L 717.3783 397.636 L 716.9214 397.7598 L 716.5222 397.9425 L 716.1754 398.0574 L 715.8175 398.2401 L 715.5257 398.4699 L 715.3936 398.7734 L 715.3578 399.2596 L 715.4101 399.6457 L 715.6551 400.3322 L 715.7267 400.5503 L 715.5835 400.7801 L 715.4459 400.9098 L 715.2725 401.0188 L 715.1486 401.1102 L 715.5946 401.8793 L 716.4809 403.5707 L 718.4629 405.601 L 719.363 407.425 L 719.9328 408.9985 L 720.2577 410.4896 L 720.8275 411.901 L 720.6761 413.3007 L 718.0032 411.518 L 715.9056 410.2951 L 714.4852 409.1871 L 712.1399 408.0556 L 707.5621 406.1874 L 706.5023 405.5067 L 704.3221 404.77 L 703.5431 403.9803 L 702.3705 403.3025 L 699.86 401.4962 L 697.8505 400.3647 L 695.285 398.3314 L 693.0002 396.5251 L 690.7485 394.9898 L 690.2007 394.2591 L 688.6399 393.3957 L 686.0248 392.5559 L 682.1324 389.8655 L 680.0624 388.1947 L 678.2621 387.2164 L 676.4976 385.2539 L 673.4091 383.0203 L 670.1443 380.7867 L 669.1754 379.7141 L 668.7349 378.4676 L 668.7432 376.3342 L 669.1065 373.7558 L 668.6744 370.3759 L 667.9752 368.0598 L 666.2575 364.5738 L 664.5012 362.022 L 660.6392 360.2245 L 655.6732 357.3868 L 655.4228 358.1618 L 654.9878 359.2079 L 654.4565 360.1567 L 653.8647 361.1203 L 652.8407 361.4356 L 649.821 361.3148 L 646.9746 360.4867 L 645.356 360.3482 L 644.2247 361.0879 L 643.9411 362.2341 L 644.8716 363.2154 L 646.1185 364.2055 L 647.2747 365.0984 L 648.4996 365.7702 L 649.2869 367.4822 L 649.6971 368.879 L 649.32 369.9251 L 648.9153 370.9063 L 648.1418 372.0261 L 647.2086 372.4917 L 645.0147 371.8876 L 643.286 369.9251 L 639.0083 372.8335 L 637.3897 377.9637 L 637.3511 382.3072 L 636.4069 385.3305 L 628.0689 382.8523 L 626.7862 381.983 L 625.7429 379.3516 L 625.3713 378.8713 L 624.807 378.1376 L 622.7892 378.1317 L 621.5753 378.3704 L 619.541 376.6613 L 618.3986 376.4285 L 615.7643 375.6653 L 612.461 375.4914 L 610.2891 375.5975 L 609.1439 376.0542 L 607.6575 376.7379 L 605.7168 375.512 L 604.3515 373.9002 L 603.6743 371.7137 L 603.3357 369.7601 L 602.8815 366.6925 L 601.0482 365.2752 L 595.7492 369.0646 L 585.8752 372.5388 L 583.7776 370.538 L 579.6705 353.9745 L 573.6778 356.6884 L 572.6098 357.2395 L 571.6518 357.4457 L 570.8838 357.6137 L 569.8653 357.7551 L 568.8991 357.985 L 567.9191 357.8288 L 567.03 357.6608 L 566.3969 357.5341 L 565.505 357.5489 L 564.9958 357.5371 L 564.3819 357.3161 L 562.8266 357.0568 L 561.2355 356.6236 L 560.0243 356.1227 L 558.5213 356.7827 L 557.4615 357.5754 L 556.2421 358.0174 L 555.2676 357.8907 L 553.7316 357.484 L 552.5397 356.712 L 551.8708 355.7337 L 551.5982 354.334 L 551.4661 353.0315 L 551.4936 351.9265 L 551.5652 350.6977 L 551.6643 349.0564 L 551.568 347.9868 L 551.4826 347.1764 L 551.301 346.2895 L 550.9211 345.1343 L 550.2852 344.4831 L 549.5227 343.8908 L 548.7189 343.5019 L 548.2509 343.1571 L 547.4747 342.3585 L 547.103 341.7368 L 546.1561 340.5227 L 545.5423 339.7094 L 545.0495 339.0612 L 544.3255 338.6545 L 543.5768 338.4541 L 542.8281 338.8077 L 542.272 339.3087 L 540.8654 339.7094 L 539.6101 339.8067 L 538.4567 339.2468 L 537.452 338.8402 L 536.5519 338.0799 L 535.5994 337.3344 L 535.2856 336.7509 L 534.7103 336.2471 L 533.6285 335.6901 L 532.2246 335.1361 L 531.0134 335.531 L 530.7216 336.5771 L 530.9776 339.8509 L 530.5344 340.9235 L 528.902 341.0443 L 527.333 340.343 L 526.9586 339.459 L 525.2024 337.9385 L 523.1351 336.415 L 521.255 335.2746 L 519.1189 334.8886 L 516.9827 334.9446 L 515.6614 335.4455 L 515.0944 336.0761 L 513.8832 337.6762 L 512.994 338.6987 L 512.1104 339.4295 L 511.2736 340.6848 L 510.1532 341.7014 L 509.1678 343.2838 L 507.4088 343.3398 L 505.2726 343.3958 L 503.888 344.7807 L 503.2852 345.6088 L 502.9879 346.5252 L 502.5915 347.7599 L 501.8345 348.7117 L 500.0672 349.6841 L 496.7722 350.5887 L 494.281 351.128 L 491.6604 351.679 L 489.0151 351.8794 L 485.5989 352.7811 L 483.9445 352.9962 L 482.3094 353.7417 L 480.1871 355.3153 L 478.2877 356.161 L 475.8515 357.0568 L 472.5097 357.1835 L 468.4412 357.2424 L 463.5936 357.1776 L 460.1665 356.1374 L 458.3359 356.0136 L 457.2761 356.4998 L 456.0292 357.3426 L 454.5977 358.094 L 453.0837 358.869 L 451.5505 359.2226 L 449.8658 359.3287 L 448.2059 358.6892 L 446.9039 358.0852 L 445.8413 357.5194 L 444.3659 356.6707 L 441.9655 355.7101 L 440.3882 355.3712 L 439.5651 355.7278 L 439.2843 356.0401 L 439.0063 356.3554 L 438.9347 357.1245 L 439.21 358.2443 L 439.7606 360.2039 L 439.8954 362.0249 L 440.3496 363.9845 L 440.6937 365.2575 L 440.9195 365.8085 L 440.8011 366.4214 L 440.6387 367.5117 L 439.9257 368.767 L 439.1164 369.9428 L 438.2466 370.7413 L 436.5757 370.9741 L 435.1965 370.3936 L 433.7101 369.7718 L 432.9476 368.8613 L 431.629 367.3172 L 430.8693 365.9175 L 430.4536 364.4471 L 429.4378 362.4168 L 427.778 362.1575 L 425.9033 362.5524 L 424.2737 364.0906 L 422.6937 366.6012 L 422.1679 368.4989 L 421.6063 369.6157 L 421.254 371.0861 L 420.4144 372.692 L 419.7152 373.6703 L 419.016 374.9964 L 418.0663 376.4403 L 417.1552 377.283 L 415.8917 377.3773 L 415.7183 378.1759 L 415.1072 379.2544 L 414.7548 380.5126 L 414.2648 381.1373 L 413.94 381.9329 L 413.0784 382.817 L 412.7261 383.9338 L 412.17 384.4229 L 411.5396 385.0506 L 411.0524 385.6782 L 410.4936 386.0967 L 408.9768 386.2263 L 408.096 386.5799 L 407.5922 386.851 L 407.0279 386.9925 L 406.0535 387.3136 L 405.1285 388.3921 L 402.9621 389.8184 L 401.8638 390.1366 L 401.1756 390.3075 L 400.2122 390.1896 L 399.4717 390.1425 L 398.1339 390.2898 L 396.7024 390.6582 L 395.0701 392.0048 L 394.0296 392.6943 L 392.4715 392.8358 L 390.5611 392.7886 L 388.4718 392.7828 L 386.9578 392.8358 L 384.64 393.048 L 382.8039 393.6285 L 380.6623 394.7364 L 375.9937 394.9073 L 374.254 394.9751 L 372.9767 395.6204 L 372.1509 396.7608 L 372.0986 397.4238 L 371.4434 398.5318 L 370.3974 405.1796 L 370.3754 405.2326 L 369.7725 409.028 L 363.2403 410.7194 L 361.5226 409.7912 L 360.4133 408.5978 L 358.9516 408.2442 L 357.0192 407.8817 L 354.7757 408.0939 L 352.6341 407.8788 L 351.6596 408.1263 L 350.9412 408.9573 L 350.3163 410.3894 L 349.6859 411.5062 L 349.5208 411.6859 L 341.7443 411.2292 L 341.692 411.1968 L 340.6129 410.6399 L 339.6054 410.5102 L 338.7246 409.912 L 337.8712 409.7853 L 336.7343 410.136 L 336.5527 411.6241 L 337.128 412.9442 L 337.439 414.7535 L 338.6833 416.9458 L 341.2213 418.8199 L 342.0526 419.7305 L 342.1187 421.2009 L 341.8489 421.7195 L 341.1415 422.1792 L 340.5827 422.8068 L 341.2103 422.9483 L 342.182 423.2989 L 344.1997 424.2861 L 345.3091 425.0581 L 347.9049 426.7731 L 349.0142 428.2465 L 349.6364 429.9261 L 349.3528 432.0949 L 348.5793 434.962 L 344.7916 446.1743 L 343.6134 444.9809 L 342.4352 443.0891 L 341.6012 441.8986 L 340.7698 440.6374 L 338.7576 438.0414 L 337.651 435.7311 L 336.371 434.6232 L 335.2589 433.7804 L 333.3127 432.7962 L 331.3252 431.6116 L 329.0019 431.5262 L 328.0302 430.8219 L 327.1273 429.5607 L 326.9897 427.2033 L 327.499 425.288 L 325.8005 425.9775 L 324.1544 426.7554 L 322.8524 427.8045 L 322.2936 430.5921 L 322.3899 432.6371 L 322.3734 435.2508 L 321.8504 436.9894 L 321.498 439.5118 L 321.0603 440.6404 L 319.6289 440.8525 L 317.0992 441.5008 L 312.4939 441.0971 L 310.7679 441.6835 L 309.5677 442.6088 L 308.9181 443.8464 L 308.4749 445.75 L 308.8025 447.7803 L 309.0364 448.9442 L 308.9731 449.3302 L 305.356 451.2132 L 305.0698 451.2338 L 304.4229 451.1778 L 304.032 450.7948 L 302.9887 449.5719 L 301.4664 447.6948 L 300.2965 446.3099 L 299.3799 445.3227 L 298.5073 445.7352 L 296.6382 446.6988 L 295.6967 447.2057 L 293.8276 448.1958 L 292.1815 449.1505 L 291.2318 449.5453 L 287.9451 449.9726 L 287.177 449.6013 L 286.0347 448.3932 L 285.2859 446.9817 L 284.9941 445.7971 L 284.6308 444.6803 L 284.0555 443.0537 L 282.2332 441.9723 L 280.5237 440.5755 L 279.4529 440.7641 L 278.4482 441.2769 L 277.4379 441.822 L 276.7029 442.9123 L 275.6294 443.2806 L 274.6054 442.9712 L 273.6061 441.934 L 272.5711 440.2779 L 272.4004 439.4086 L 270.413 437.9264 L 268.9458 437.3135 L 267.7318 437.6583 L 266.9721 438.3655 L 266.5234 439.886 L 266.7711 442.0902 L 266.3086 443.6431 L 266.116 445.0752 L 265.7306 446.6428 L 264.8414 447.9924 L 263.7734 448.9236 L 262.2704 449.398 L 260.7812 449.6426 L 259.1598 449.2978 L 256.9246 448.5435 L 255.1601 449.1063 L 253.4286 448.9295 L 251.0833 448.5317 L 249.2968 448.9354 L 247.8957 448.1339 L 246.423 448.8263 L 244.8594 449.8518 L 242.3544 448.903 L 239.855 449.6043 L 239.6375 450.7476 L 240.6918 451.7613 L 241.8259 452.7278 L 241.5672 453.4232 L 240.0945 453.6796 L 238.3905 453.9418 L 236.5159 454.7375 L 235.4726 455.9603 L 234.9496 457.1714 L 234.2146 457.7431 L 233.2292 457.3541 L 232.3538 456.0429 L 231.1839 454.9732 L 229.8626 454.2129 L 227.8256 453.9418 L 225.6124 454.1157 L 223.6607 455.2266 L 221.8494 455.6156 L 218.9563 455.757 L 218.7113 455.7688 L 217.0569 454.6196 L 216.1925 454.0067 L 214.7253 453.3083 L 213.1067 453.0018 L 211.0642 453.3407 L 210.3403 454.3662 L 209.6768 455.757 L 209.7319 457.2304 L 209.2502 458.6124 L 208.5455 459.797 L 207.5903 460.5484 L 206.7259 460.5454 L 205.6001 460.457 L 204.3035 460.6279 L 203.4364 461.235 L 203.0015 462.1013 L 203.0841 463.669 L 202.7372 464.6237 L 202.0435 464.7091 L 201.0939 463.9253 L 200.6424 462.6848 L 199.9129 462.1013 L 198.3191 462.2958 L 197.6557 463.2594 L 197.1464 464.6119 L 196.7115 465.7405 L 195.8444 465.9998 L 194.7213 465.9114 L 193.945 464.2554 L 192.5356 463.5423 L 190.7464 463.9017 L 189.9673 464.1611 L 188.4946 464.8535 L 187.9 466.1088 L 188.8112 467.0371 L 189.6425 467.5262 L 191.184 468.8817 L 192.2906 469.5565 L 192.2383 471.2184 L 190.8344 473.3489 L 189.593 473.8587 L 188.7479 473.3224 L 188.7369 471.9846 L 187.9634 470.5053 L 187.1843 470.0692 L 185.0207 470.6704 L 183.3773 470.582 L 182.4744 469.5035 L 182.3863 468.2452 L 182.3258 467.0901 L 182.1881 466.6392 L 181.5853 466.5155 L 181.0348 466.4065 L 179.9061 466.1825 L 178.1554 467.096 L 175.6477 467.703 L 174.6319 469.2235 L 173.6492 471.3363 L 172.5426 471.5485 L 169.8504 470.4788 L 169.4485 470.3757 L 167.4335 469.9455 L 166.1618 470.7146 L 165.0855 472.1084 L 163.7339 473.234 L 162.9191 473.7615 L 161.7629 473.6731 L 160.1223 473.2428 L 158.9496 472.5032 L 158.7735 471.0122 L 158.7294 469.8895 L 158.8836 468.8846 L 159.013 468.0566 L 158.8505 467.3524 L 159.4727 466.4124 L 159.3323 464.9802 L 155.4619 463.1739 L 151.1264 467.759 L 150.3061 467.4908 L 149.2243 466.4654 L 148.4205 465.434 L 147.3249 465.1571 L 146.4578 465.7641 L 144.3712 466.766 L 142.7774 467.0017 L 141.6102 466.43 L 140.9331 464.9537 L 141.3019 463.6041 L 141.6625 462.6612 L 141.3074 462.007 L 140.2724 461.4383 L 139.1878 461.618 L 138.3345 462.0925 L 137.4646 463.6572 L 135.791 464.8712 L 133.9742 464.4322 L 132.0748 463.0354 L 131.1857 461.4943 L 130.7645 460.6987 L 129.9965 458.8187 L 129.1239 457.8639 L 129.9827 456.5939 L 131.4279 456.4024 L 132.3969 454.7581 L 132.3996 453.3054 L 132.7878 451.3694 L 132.6006 449.4304 L 132.6033 447.3972 L 133.1841 446.1389 L 133.8641 443.9112 L 132.262 441.2268 L 131.2793 437.8675 L 130.7287 435.5779 L 130.1727 433.2471 L 129.6139 431.0576 L 128.9862 429.1511 L 128.4412 426.9264 L 130.3543 418.7286 L 130.4672 418.6048 L 130.503 415.3281 L 130.9407 412.7202 L 131.6289 408.3679 L 107.4599 409.8943 L 104.9825 408.9131 L 102.9097 408.4593 L 102.8188 406.5027 L 102.2463 404.2307 L 101.8636 403.167 L 100.8066 401.7113 L 99.7468 400.8361 L 98.7861 400.1554 L 98.398 398.2695 L 98.0594 396.7461 L 97.4951 395.3376 L 96.9142 393.6078 L 95.9701 392.2347 L 95.0919 391.2888 L 93.922 389.8684 L 92.0942 389.0581 L 89.592 389.2703 L 88.0587 388.0326 L 87.0402 386.5917 L 86.8393 384.9445 L 85.9226 382.7845 L 85.1023 379.3722 L 85.2592 377.3066 L 85.3418 374.5514 L 85.4987 371.8729 L 85.8345 370.6352 L 87.3843 368.0804 L 88.7166 366.4362 L 89.9471 365.1013 L 91.362 363.9285 L 93.3137 362.738 L 94.5662 361.5564 L 94.5992 360.3895 L 95.8324 359.6911 L 95.8902 359.5939 L 96.4435 358.0086 L 96.46 357.8465 L 96.0802 357.7316 L 95.5159 357.6991 L 94.4506 358.3091 L 94.2001 358.4181 L 93.6688 358.3857 L 92.9173 358.1028 L 92.0942 357.8818 L 91.5382 357.7551 L 91.095 357.1687 L 91.3014 356.2052 L 91.5106 355.4832 L 91.6153 354.6552 L 91.1693 353.7947 L 90.2747 352.8724 L 90.2774 352.0267 L 90.6986 351.5287 L 91.2574 351.2134 L 91.4941 350.8598 L 91.6153 350.5209 L 91.8575 349.9375 L 92.0942 349.469 L 92.5264 349.0712 L 92.7797 348.635 L 93.1375 347.975 L 93.1816 347.3974 L 92.8209 346.8818 L 92.0612 346.6342 L 90.7289 346.6372 L 90.2471 346.3631 L 90.0462 345.9329 L 89.7709 345.1609 L 89.7847 343.8496 L 89.7929 343.5755 L 90.1673 343.3457 L 92.0942 342.0285 L 92.854 341.2771 L 93.3082 340.6936 L 93.6743 339.9157 L 93.4183 339.6328 L 92.9861 339.2409 L 92.7989 338.8667 L 92.8843 338.407 L 92.6365 337.9886 L 92.0942 337.7911 L 91.362 337.4935 L 90.6738 337.6909 L 90.0049 338.4512 L 89.0139 338.5514 L 88.4138 337.8825 L 87.9872 336.9248 L 87.2439 335.7107 L 86.1676 335.4632 L 85.3776 334.535 L 86.0905 333.6038 L 86.9081 332.8023 L 87.4476 331.9655 L 86.9108 330.9783 L 86.4236 329.8438 L 85.3611 328.9804 L 85.0005 328.2261 L 85.1023 327.7605 L 85.6088 327.4482 L 86.4319 327.3863 L 87.2109 326.9472 L 87.7559 326.2989 L 88.3753 325.5416 L 88.791 325.1261 L 89.3222 324.4808 L 90.0132 323.8325 L 90.6298 323.3463 L 91.0207 323.0811 L 91.362 322.7599 L 92.0942 322.8984 L 94.4726 321.5783 L 95.8104 319.8574 L 97.2391 318.6168 L 99.3366 317.8566 L 101.5278 317.1906 L 103.3419 315.2812 L 104.1071 313.7518 L 105.3458 313.1802 L 106.7387 309.2934 L 106.6479 307.1895 L 107.3195 304.1278 L 108.4674 301.4522 L 109.04 300.6861 L 109.0428 299.5369 L 109.6181 297.3386 L 110.1906 296.764 L 111.0467 298.202 L 112.9461 300.4091 L 115.6768 302.3687 L 117.3863 303.6151 L 118.6195 305.9136 L 119.7591 307.4488 L 121.2786 309.0783 L 123.0871 310.1333 L 125.1765 311.4799 L 126.0326 312.1518 L 128.1274 311.9632 L 132.5097 314.7478 L 134.8881 315.9029 L 138.4116 315.3342 L 139.843 314.0936 L 140.5119 312.5643 L 142.3232 311.6125 L 144.5887 310.0949 L 145.1447 309.8946 L 145.7861 309.3435 L 149.3289 307.6227 L 151.4017 307.2337 L 153.469 306.6561 L 161.4766 302.1624 L 163.5247 302.0887 L 166.9518 302.1919 L 169.9991 302.4865 L 172.4738 302.2066 L 173.9024 301.9208 L 176.2835 301.9266 L 177.8994 302.9845 L 180.1842 303.8509 L 182.4689 304.0453 L 187.9744 305.3831 L 189.5186 305.9047 L 190.9803 306.0815 L 192.0126 305.1327 L 195.4755 301.2577 L 191.0712 297.4123 L 192.2026 296.8642 L 195.1727 294.2063 L 196.9372 291.2919 L 199.3982 288.4572 L 201.1819 285.3661 L 201.6609 283.3417 L 202.6161 281.1994 L 204.5155 279.0601 L 203.1116 276.8825 L 201.4545 275.6861 L 198.3742 274.9642 L 196.4775 274.3631 L 194.3469 273.8827 L 193.4 273.4054 L 191.7401 273.2816 L 189.7251 273.1579 L 188.4231 272.2002 L 187.1183 271.9615 L 182.7359 270.9979 L 179.5373 270.1552 L 177.525 268.3635 L 176.713 266.7841 L 177.3819 263.584 L 178.5298 260.266 L 179.741 256.285 L 178.5408 255.2566 L 176.7405 254.9501 L 174.2768 255.4275 L 171.3341 254.6348 L 167.9483 253.353 L 167.3537 253.9453 L 165.2203 254.2989 L 162.9686 253.2204 L 161.1931 252.8609 L 159.1781 252.0211 L 157.0503 249.3955 L 156.2244 248.2021 L 153.4992 247.601 L 150.419 246.2838 L 148.6462 243.897 L 146.634 241.9875 L 144.9796 240.5554 L 143.7931 239.8364 L 142.0204 238.2835 L 141.1808 236.3652 L 141.1478 235.2425 L 140.8642 234.2612 L 140.3165 233.5805 L 138.0234 232.2339 L 137.7674 231.2526 L 138.307 229.9826 L 138.1528 224.9879 L 138.5134 223.1491 L 139.3723 221.9321 L 139.6586 220.7269 L 140.4266 219.7928 L 141.4643 219.1652 L 142.8958 218.9471 L 144.3272 219.2271 L 145.6485 219.616 L 146.3614 220.005 L 147.4625 220.338 L 148.7838 220.6179 L 153.1937 220.3409 L 154.4324 219.0709 L 155.4702 218.2517 L 156.6263 217.1644 L 157.1439 216.3363 L 157.554 215.0958 L 158.0991 214.0467 L 158.8726 213.1067 L 160.4168 212.2816 L 161.3528 211.8956 L 163.7201 211.7895 L 164.656 211.6275 L 164.879 210.7405 L 165.157 209.3585 L 164.7331 204.8648 L 164.6258 203.4769 L 164.6203 202.914 L 165.3084 202.4868 L 165.9691 201.5969 L 166.8665 200.206 L 167.8492 199.2218 L 168.7438 198.5411 L 169.3412 197.772 L 169.7623 196.1012 L 170.3679 195.0109 L 170.7891 194.177 L 170.8414 193.5553 L 171.0093 192.0023 L 171.2048 191.3128 L 171.6507 190.694 L 174.6182 188.1863 L 174.6649 187.9035 L 174.5548 187.2404 L 173.952 186.0765 L 172.9142 184.7151 L 172.6114 182.8292 L 173.3684 181.294 L 174.5576 180.6457 L 175.4467 180.1212 L 175.989 179.3933 L 176.7488 178.3561 L 177.5801 177.9524 L 178.3508 177.5664 L 179.9061 176.9829 L 181.3816 176.7884 L 182.5543 176.1107 L 183.102 174.8436 L 183.4434 173.5205 L 183.5838 172.2328 L 183.6801 170.1583 L 184.2857 168.7734 L 185.7144 168.2282 L 187.1155 168.1575 L 187.9413 167.6595 L 188.9901 167.1085 L 190.4243 166.1184 L 191.2033 165.644 L 191.8667 164.9485 L 192.7283 164.0822 L 194.0386 162.6678 L 195.3957 161.6747 L 196.3316 161.0471 L 197.8181 160.2367 L 199.8992 159.6621 L 201.0883 159.5796 L 201.7545 159.3763 L 202.5143 159.2673 L 203.0428 159.0728 L 203.5465 158.9431 L 203.9815 158.566 L 204.6394 158.1387 L 205.8919 157.5729 L 206.8691 156.7596 L 207.7444 155.8373 L 208.6556 154.9002 L 209.82 153.8394 L 210.877 152.6902 L 212.3828 151.3288 L 215.2071 149.5225 L 216.8229 149.0363 L 218.4663 149.3516 L 219.9748 150.0352 L 221.2713 148.7416 L 222.3752 146.673 L 223.267 145.0847 L 225.1472 143.7233 L 226.5731 143.7263 L 227.0741 143.7292 L 229.4056 144.7193 L 230.0635 145.0376 L 231.6684 145.8627 L 233.1713 146.6671 L 234.8312 147.5128 L 236.5765 148.0197 L 238.5942 148.2642 L 240.5569 147.6277 L 241.881 147.0119 L 242.949 146.0247 L 244.7878 144.3539 L 246.0321 142.7215 L 246.8359 140.9534 L 247.4029 139.1677 L 247.8764 137.2818 L 248.7876 135.1042 L 249.8942 134.2909 L 251.9147 134.5149 L 255.0032 135.9587 L 256.4236 136.7956 L 258.3313 136.7632 L 261.1858 137.0932 L 263.1678 137.5411 L 265.447 138.1305 L 266.8812 138.823 L 268.3842 139.763 L 270.0193 140.6499 L 271.5416 140.3936 L 273.1106 139.2826 L 274.3714 138.8406 L 275.533 138.2307 L 276.8185 137.8653 L 277.8205 137.9213 L 279.1914 138.1688 L 280.4439 138.49 L 282.0322 139.3475 L 282.8277 140.1048 L 283.8463 140.7531 L 284.9831 140.1961 L 285.7979 139.3386 L 286.1283 138.49 L 285.9851 137.2907 L 286.1751 135.7554 L 286.343 134.3587 L 287.2761 133.4069 L 288.4268 133.1623 L 289.2031 133.124 L 290.7473 132.9619 L 292.1237 132.8559 L 292.933 132.2636 L 293.7891 131.6448 L 294.5406 131.076 L 295.9472 129.9298 L 297.1144 129.2491 L 298.4742 129.1784 L 300.0213 129.9062 L 301.5187 130.8079 L 302.8566 131.8333 L 304.0678 132.4993 L 305.1716 132.5376 L 311.5029 130.5309 L 314.0987 126.2729 L 317.7516 123.9391 L 319.2298 124.5756 L 320.452 127.7227 L 324.0498 130.0241 L 327.2815 128.6214 L 328.5202 124.7936 L 330.9812 125.4036 L 332.041 132.2812 L 333.7614 135.7466 L 335.369 136.6601 L 339.1265 134.0021 L 339.955 133.5365 L 344.1695 133.5307 L 351.1256 129.2638 L 351.2687 129.2785 L 353.2424 129.2167 L 354.561 130.1861 L 355.6593 134.394 L 356.3695 134.7093 L 356.9421 135.1955 L 357.2504 135.6493 L 358.3267 137.2524 L 359.1966 138.2218 L 360.1793 138.8259 L 361.1648 138.8907 L 361.3547 138.8583 L 366.8712 140.6794 L 367.997 140.644 L 369.2936 140.9446 L 372.1702 140.3346 L 375.0825 140.0547 L 378.1133 140.1519 L 383.5582 141.7314 L 386.8257 142.524 L 389.5509 142.9985 L 391.965 143.0839 L 394.5333 143.4817 L 397.6714 143.8795 L 398.7285 145.1613 L 398.6982 145.2262 L 398.4614 145.6033 L 398.1366 145.8892 L 397.2255 145.4118 L 396.8153 145.5827 L 396.5703 145.4825 L 396.8346 146.3223 L 396.5318 147.1622 L 396.6171 147.2506 L 396.5923 147.9254 L 396.3226 148.164 L 395.8821 148.3644 L 395.995 148.5884 L 395.6867 148.6178 L 395.3343 148.444 L 394.8691 148.6296 L 394.8746 148.8742 L 394.5581 149.0569 L 394.6296 149.2838 L 394.4177 150.7336 L 394.6186 151.5233 L 394.9242 151.3553 L 395.4417 150.9133 L 395.4389 150.7071 L 395.5931 150.7689 L 395.7748 151.2669 L 395.7307 151.7237 L 395.6922 151.9535 L 395.9372 151.9918 L 396.24 152.1126 L 396.6969 152.3395 L 397.2365 152.4044 L 397.6989 153.0762 L 397.9439 153.7716 L 397.9302 153.9897 L 397.9494 154.2431 L 398.3018 155.3747 L 398.0485 155.7636 L 398.1229 155.9581 L 398.1201 156.4031 L 398.288 156.6889 L 398.4614 157.455 L 398.2853 158.1475 L 398.2082 158.5188 L 398.3513 159.3586 L 398.5605 159.8949 L 398.4917 160.0334 L 398.4945 160.3104 L 398.5688 160.8909 L 398.8165 161.386 L 398.9046 161.5598 L 399.1551 161.8486 L 399.1056 162.0372 L 398.7477 162.1492 L 398.8386 162.4615 L 398.8083 162.7473 L 398.8854 162.9124 L 398.9101 163.0332 L 399.568 163.7934 L 399.5708 164.5684 L 399.5185 164.5831 L 399.5212 164.648 L 398.5247 164.9191 L 398.5936 165.1401 L 398.745 165.4023 L 398.7092 165.8679 L 398.9349 166.4307 L 399.1083 166.914 L 399.0092 167.135 L 399.1854 167.5976 L 399.4111 168.2724 L 399.5102 168.5671 L 399.7552 169.681 L 399.7222 169.958 L 399.4579 170.5119 L 398.8523 170.9127 L 398.6211 171.2133 L 398.5055 171.7083 L 398.5771 172.165 L 398.7395 172.3507 L 399.0643 172.0943 L 399.2212 172.0737 L 399.5873 172.2151 L 399.6313 172.6542 L 399.9204 172.9047 L 399.9479 173.1286 L 399.9837 173.438 L 399.9672 173.771 L 399.067 174.8613 L 398.7642 175.9192 L 398.2275 176.3612 L 398.0403 176.5439 L 397.6631 176.6912 L 397.7072 176.8209 L 397.743 176.8621 L 398.3183 177.2481 L 398.3651 177.2864 L 398.3183 177.5399 L 398.3981 178.0054 L 398.2137 178.5064 L 398.3376 178.9307 L 398.3073 179.2932 L 398.3321 179.797 L 398.6541 180.4394 L 398.8826 180.8873 L 398.9294 181.5828 L 398.9762 181.6888 L 399.2019 181.6122 L 399.5763 181.4443 L 400.4351 181.2999 L 399.5956 183.3095 L 399.546 183.3596 L 399.6561 183.6248 L 399.8048 184.0492 L 399.9534 184.9155 L 400.3113 185.2691 L 400.325 185.3752 L 400.4379 185.7671 L 401.2912 187.2346 L 402.0923 188.6195 L 402.2024 190.0015 L 402.4254 191.8491 L 402.9952 193.6938 L 403.3365 195.1936 L 404.8202 197.0412 L 406.0782 198.659 L 408.0272 199.5872 L 409.7476 200.0528 L 411.691 201.5556 L 413.7556 202.254 L 416.233 203.6271 L 416.8744 203.5269 L 418.7463 203.7538 L 420.6181 203.6478 L 422.2698 203.5417 L 424.4774 201.7795 L 426.4594 201.5644 L 428.334 200.9044 L 435.9315 201.0664 L 436.6582 200.5714 L 437.5969 200.0675 L 438.2741 199.6933 L 439.1687 199.5371 L 439.9477 199.3632 L 440.669 199.2513 L 441.5746 199.322 L 442.0481 199.7434 L 442.439 200.2148 L 443.1134 200.3239 L 443.9172 199.9585 L 444.7925 199.5459 L 445.6652 199.3868 L 446.2625 199.2719 L 446.7222 199.1128 L 447.4076 198.5735 L 447.9582 198.2199 L 448.4922 198.1492 L 449.0703 198.1639 L 449.9897 198.3172 L 451.1348 198.6413 L 453.6315 198.0136 L 455.396 197.2593 L 457.4165 195.0728 L 460.8712 190.2785 L 462.5531 189.1028 L 463.2248 188.428 L 464.9039 188.4339 L 465.6609 187.6766 L 466.4179 186.8367 L 467.3429 186.3329 L 469.4322 186.3564 L 472.1766 187.488 L 473.6989 188.923 L 473.7952 190.6616 L 473.6879 192.5003 L 472.4134 194.8312 L 470.3516 196.7082 L 468.4715 197.8987 L 465.9087 198.6708 L 468.1439 200.6539 L 470.013 202.4514 L 471.9757 203.6949 L 477.4096 206.7801 L 479.2456 205.5602 L 479.9641 203.5181 L 480.4789 201.476 L 482.6673 199.0892 L 483.8069 198.0785 L 485.4117 196.9499 L 486.5293 196.0128 L 487.7405 195.4942 L 488.1892 194.6072 L 489.5381 193.4138 L 490.4217 191.2421 L 491.3741 189.8807 L 492.8964 188.7226 L 494.1241 188.1922 L 495.1867 187.5616 L 496.6236 186.7012 L 497.7742 186.2739 L 499.0102 185.4105 L 499.536 182.4137 L 500.059 179.7646 L 500.5352 177.8257 L 500.3095 175.8926 L 499.9902 173.8476 L 502.3658 173.0697 L 503.5219 170.9039 L 504.4193 170.9156 L 504.2239 171.5993 L 506.2416 169.7576 L 508.8127 173.494 L 512.2123 176.1608 L 514.5851 176.4201 L 516.5038 176.6411 L 517.7865 178.0084 L 518.783 179.5201 L 520.2089 180.9639 L 522.279 181.9039 L 523.9939 182.6996 L 524.4839 186.0058 L 525.7612 189.1705 L 525.8933 192.5563 L 525.585 196.614 L 526.7439 201.9593 L 527.4789 202.0271 L 528.6515 202.5074 L 529.3149 202.5133 L 530.0582 201.7766 L 531.7621 201.3876 L 533.667 201.034 L 534.7626 201.1401 L 536.417 201.3228 L 538.176 201.3199 L 539.7615 201.1224 L 541.4352 199.9084 L 542.5253 198.7916 L 543.7557 197.9753 L 545.2532 197.4184 L 546.3984 197.1974 L 547.1278 196.667 L 547.5297 195.6032 L 548.6363 194.9108 L 549.6879 194.3391 L 550.9679 194.5454 L 551.8598 194.4923 L 552.4929 194.2713 L 552.614 193.3048 L 553.2802 192.4001 L 553.7619 191.6753 L 554.7887 190.9533 L 555.8705 190.8973 L 556.5944 190.2932 L 556.8972 189.6921 L 557.6818 189.1499 L 558.5241 188.9112 L 559.1187 188.8582 L 559.1242 187.8917 L 559.2453 186.8633 L 559.3692 186.0794 L 559.8537 185.3546 L 561.965 183.1858 L 562.8707 182.4019 L 564.437 181.9246 L 565.5821 181.3234 L 567.1511 179.6969 L 568.4174 178.8541 L 569.0808 177.6459 L 569.747 176.7442 L 570.4104 176.0194 L 570.6526 175.1736 L 571.3243 173.9743 L 571.4481 172.5245 L 571.9932 171.2575 L 572.7227 169.5071 L 573.6283 168.0573 L 574.1155 166.6694 L 575.324 165.0399 L 576.2902 163.7139 L 577.4353 163.0538 L 579.376 160.4843 L 579.3842 157.7586 L 579.6072 155.9021 L 579.7201 154.5938 L 580.8129 152.5252 L 580.7083 150.5597 L 580.7138 148.8153 L 580.3945 147.2859 L 580.5101 145.2144 L 582.4398 140.9741 L 582.9187 139.542 L 582.927 137.6325 L 583.0536 135.1248 L 582.7013 133.2154 L 582.4673 132.735 L 581.9938 131.5416 L 581.7598 130.7047 L 582.3076 127.2041 L 582.2608 124.496 L 583.8326 123.6592 L 585.8587 122.0444 L 586.7726 120.1201 L 587.992 117.4887 L 588.7077 114.9546 L 589.217 113.2337 L 589.2197 112.0167 L 588.5178 110.8999 L 592.011 108.5307 L 595.0417 107.8294 L 598.1743 106.6242 L 601.0096 103.9957 L 602.4493 102.4899 L 603.9138 102.1629 L 605.436 101.9419 L 607.5253 101.7975 L 609.8652 101.7061 L 613.997 101.8181 L 616.1854 102.2748 L 618.1233 103.2826 L 620.309 103.9397 L 621.8946 106.2971 L 622.9984 108.9344 L 626.7779 113.5637 L 629.4948 116.4132 L 632.0108 117.9425 L 634.1304 118.3551 L 637.9677 117.5565 L 642.7217 115.1372 L 646.5893 112.4174 L 649.2897 109.7831 L 652.6535 106.9189 L 656.978 103.9574 L 659.9207 102.8259 L 662.1449 101.8181 L 664.2067 99.0069 L 665.6987 94.2745 L 670.7059 93.14 L 678.9916 97.5365 L 683.974 100.274 L 686.3414 101.2877 L 688.2628 102.1687 L 687.4645 103.3032 L 685.7936 105.8934 L 683.6602 109.2261 L 684.4007 109.4442 L 688.1774 111.3596 L 691.8248 112.9537 L 693.6333 113.7611 L 694.9409 114.2591 Z" fill="#f4f6f7" fill-opacity="1" stroke="#000000" stroke-width="0.4545454446934474" paint-order="fill" stroke-opacity="1" stroke-dasharray="" stroke-linecap="butt" stroke-linejoin="miter" stroke-miterlimit="10" transform="matrix(1.100000023841858,0,0,1.100000023841858,-42.500064849853516,-28.349946975708008)" clip-path="none"/>
<path fill="rgba(0,0,0,0)" fill-opacity="1" stroke="#ccc" stroke-width="0" paint-order="fill" stroke-opacity="1" stroke-dasharray="" stroke-linecap="butt" stroke-linejoin="miter" stroke-miterlimit="10" transform="matrix(1,0,0,1,15,10)" clip-path="none"/>
<text transform="matrix(1,0,0,1,15,10)" fill="#333" fill-opacity="1" stroke="none" clip-path="none" style="font: bolder 16px Tahoma;"><tspan dominant-baseline="middle" text-anchor="start" x="0" y="8">Calnali</tspan></text><defs><filter id="f1" x="-100%" y="-100%" width="1000%" height="1000%"><feOffset result="offOut" in="SourceGraphic" dx="-9.799999999999999" dy="9.799999999999999"></feOffset><feColorMatrix result="matrixOut" in="offOut" type="matrix" values="0.2 0 0 0 0 0 0.2 0 0 0 0 0 0.2 0 0 0 0 0 1 0"></feColorMatrix><feGaussianBlur result="blurOut" in="matrixOut" stdDeviation="8"></feGaussianBlur><feBlend in="SourceGraphic" in2="blurOut" mode="normal"></feBlend></filter></defs>
<text x="700" y="552.66666666667" font-size="11">tools.paintmaps.com</text>
</svg>