<?xml version="1.0" standalone="no"?>
<!-- Generator: Paintmaps.com , Online SVG vector map maker -->
<svg xmlns="http://www.w3.org/2000/svg" version="1.1" baseProfile="full" width="850" height="567" style="background-color:false">
<path d="M 405.9093 56.9626 L 408.5495 70.2539 L 412.7132 81.5813 L 412.1596 88.2334 L 412.9057 88.4357 L 414.7252 88.0465 L 417.4593 87.5728 L 418.3546 86.6459 L 419.6085 84.997 L 420.8913 84.1597 L 423.7649 83.4326 L 425.286 82.6235 L 426.5688 82.0858 L 427.5531 81.0667 L 429.221 80.36 L 431.7577 79.0439 L 435.2836 77.0673 L 439.2523 75.9304 L 443.3702 74.4633 L 445.4472 73.3008 L 446.7541 71.0707 L 449.0766 68.034 L 452.0296 70.2488 L 454.588 72.2331 L 453.9117 72.2843 L 451.8202 72.251 L 451.0381 72.5404 L 449.9382 73.3239 L 449.7938 74.0203 L 447.9791 74.3199 L 447.2884 75.1213 L 446.3425 75.7794 L 445.144 77.1646 L 444.5615 78.8058 L 444.6698 82.055 L 444.9586 84.828 L 445.5748 85.7779 L 446.3377 86.436 L 446.3377 87.4934 L 446.4532 88.9913 L 447.505 90.5609 L 448.4123 91.9486 L 449.3943 93.3722 L 450.3738 94.6858 L 450.9899 97.2052 L 451.1704 98.9566 L 451.8612 100.7464 L 452.8046 101.622 L 453.931 103.2274 L 455.1656 104.7253 L 456.2101 105.8365 L 457.18 106.3717 L 458.0032 107.4932 L 457.7601 108.5634 L 458.0032 109.5876 L 458.7781 110.7065 L 459.9406 111.828 L 460.8142 112.5577 L 461.7841 113.0954 L 461.8804 113.8252 L 461.5868 115.6738 L 462.1235 116.8209 L 462.2173 117.0385 L 462.7011 119.8166 L 463.1367 121.1813 L 463.7649 122.8354 L 464.0561 124.0542 L 463.9093 125.0272 L 464.0561 125.5136 L 465.3148 125.7108 L 466.3281 126.7836 L 467.1512 128.0024 L 467.6349 129.8536 L 468.458 133.1156 L 468.8431 134.2345 L 469.3293 135.502 L 469.4255 136.1344 L 469.9093 136.9153 L 471.1199 137.8397 L 471.5074 138.4747 L 472.2149 139.5065 L 475.7793 139.3196 L 476.2366 141.9466 L 475.5988 144.9296 L 478.7059 147.1367 L 481.7456 150.0505 L 483.4448 151.0465 L 482.9129 152.7876 L 482.5904 157.335 L 482.4821 161.7774 L 482.4893 162.9731 L 482.47 163.0653 L 482.393 163.5518 L 482.1981 164.4121 L 482.0946 165.0291 L 481.943 165.7128 L 481.6782 166.8932 L 481.3485 171.3407 L 481.3052 172.6593 L 480.304 177.3603 L 479.2137 182.0229 L 478.6602 185.1825 L 476.4436 194.4308 L 476.2222 195.3961 L 475.5771 196.9503 L 475.6518 198.0923 L 475.9261 198.822 L 477.9743 202.0354 L 477.6879 203.6203 L 476.5543 204.6931 L 477.0814 205.6072 L 477.2209 206.9873 L 477.2306 208.329 L 477.5338 209.4069 L 477.0092 210.4439 L 476.0585 210.3518 L 475.6951 213.5062 L 475.5025 213.9441 L 474.2823 215.1091 L 473.8997 217.4545 L 475.5627 217.667 L 476.109 217.8206 L 476.0898 220.0431 L 474.3617 220.7037 L 474.4556 221.1748 L 476.0609 221.354 L 476.0561 223.3717 L 475.9767 225.3023 L 475.9622 225.3919 L 473.6084 225.164 L 472.9297 225.7555 L 472.819 226.0678 L 473.156 226.7259 L 473.322 226.9589 L 473.659 227.2149 L 473.3293 228.2032 L 473.245 228.7205 L 473.2017 229.2428 L 472.6939 229.8727 L 472.4075 230.1543 L 472.1548 230.3207 L 471.6229 230.797 L 471.0501 231.2425 L 470.6 231.9236 L 470.4075 232.6789 L 470.5591 233.4112 L 470.7396 233.8311 L 471.2474 235.2573 L 472.9634 239.4206 L 473.5098 239.7074 L 473.9791 239.7432 L 474.1451 239.6869 L 474.5639 239.2516 L 474.9009 239.2619 L 475.2859 239.4283 L 476.1235 240.3782 L 476.4195 240.5088 L 476.446 240.6138 L 476.5783 243.4277 L 476.3377 243.6095 L 476.1692 244.0781 L 476.1355 244.9717 L 476.2222 245.6527 L 476.6674 245.9267 L 477.3846 246.3748 L 478.0802 246.8946 L 478.677 247.5833 L 478.8936 248.0852 L 479.3509 248.9225 L 479.3341 249.3526 L 477.659 249.6189 L 477.7962 249.9236 L 478.4388 250.3563 L 478.653 251.1244 L 478.7637 252.4021 L 478.8816 254.2559 L 478.9875 255.2775 L 479.2113 256.6806 L 479.2402 260.168 L 478.6385 263.0946 L 478.511 263.5375 L 478.3882 264.2852 L 478.3329 266.1031 L 478.2486 269.7261 L 478.3569 269.8721 L 478.7252 270.0052 L 478.8479 270.2971 L 479.6614 271.649 L 480.6313 271.6926 L 480.6554 271.8001 L 480.7733 273.152 L 480.1812 273.6872 L 479.9454 274.2146 L 479.8323 274.0072 L 478.7492 275.459 L 477.8058 275.6178 L 477.7023 276.7111 L 478.1331 277.0516 L 478.0729 277.7711 L 478.1066 277.9324 L 477.014 277.8863 L 476.6698 277.8377 L 476.1379 277.5714 L 475.1271 277.597 L 475.5892 279.0539 L 476.2366 278.9387 L 476.9129 279.1512 L 476.7468 280.9435 L 476.4941 283.2018 L 476.5206 283.4707 L 476.6193 283.5526 L 476.8984 283.5424 L 477.5747 283.4348 L 477.9141 283.4912 L 477.9887 284.0698 L 478.2222 285.9389 L 478.5783 288.6454 L 478.6024 288.9961 L 477.9839 289.0115 L 477.2378 289.0115 L 476.8359 289.5441 L 477.0188 290.663 L 477.5988 291.2186 L 477.6542 291.449 L 477.6036 292.2095 L 477.18 292.3887 L 476.4604 292.3068 L 476.1885 293.1082 L 475.3629 294.1836 L 473.9935 295.7301 L 473.3509 296.2243 L 472.7829 297.0257 L 472.937 297.3458 L 473.6999 299.8294 L 474.4604 302.3156 L 475.1728 304.2257 L 475.31 304.4562 L 476.15 306.7196 L 476.9923 308.9805 L 477.4953 310.2095 L 480.6578 312.1426 L 480.7998 312.2041 L 484.3738 314.2217 L 487.8708 316.3572 L 487.8804 316.9256 L 489.1463 317.7756 L 491.0525 319.1557 L 492.1187 319.5014 L 492.8431 319.4246 L 494.5591 320.7304 L 494.9779 321.6496 L 496.896 322.7148 L 498.2197 323.3805 L 499.9574 324.1793 L 501.5073 324.9398 L 502.6409 325.7003 L 503.5097 326.4991 L 504.263 327.1444 L 504.9442 327.9048 L 505.5868 328.6294 L 506.4941 329.2158 L 507.5964 329.9993 L 510.2534 331.9554 L 515.955 336.0624 L 522.9177 341.022 L 522.7227 341.5059 L 522.405 342.2101 L 522.523 345.7179 L 519.9405 345.0138 L 516.186 343.8564 L 512.097 342.5865 L 511.4255 345.321 L 510.3232 349.6456 L 509.3725 352.8104 L 509.026 354.3261 L 508.2197 357.3091 L 507.9285 358.8581 L 507.8587 358.9811 L 511.7817 360.1589 L 520.9056 363.088 L 520.4315 363.4926 L 518.5422 364.9367 L 522.1162 368.8132 L 522.3208 373.0533 L 524.961 375.7648 L 529.8852 380.4838 L 531.9333 382.166 L 539.3388 386.3984 L 542.5278 378.5967 L 543.4303 377.0835 L 544.5783 374.8251 L 545.5145 372.9458 L 546.3834 370.5543 L 547.3196 368.0348 L 548.0608 365.1005 L 555.038 372.1034 L 565.5843 382.0431 L 577.2305 393.4345 L 581.3942 398.1099 L 581.9621 398.6271 L 582.7179 399.3697 L 583.476 400.1071 L 584.2389 400.8445 L 584.997 401.5819 L 585.7624 402.3168 L 586.5253 403.0516 L 587.281 403.7941 L 588.0464 404.5264 L 588.8093 405.2638 L 589.5674 406.0038 L 590.3256 406.7438 L 591.0837 407.4838 L 591.8466 408.2186 L 592.612 408.956 L 593.3725 409.6934 L 594.1378 410.4283 L 594.896 411.1657 L 595.6613 411.898 L 596.4194 412.6379 L 597.1775 413.3779 L 597.9381 414.1179 L 598.701 414.8527 L 599.4471 415.5748 L 593.9453 422.0911 L 594.47 422.5495 L 589.0572 428.8687 L 585.2257 433.6618 L 577.926 442.434 L 561.4303 461.4709 L 560.7492 461.092 L 559.7648 460.5441 L 543.5217 451.8001 L 543.0596 451.183 L 541.8972 450.8451 L 537.0332 449.4086 L 536.9369 449.2909 L 537.8442 447.1836 L 535.0645 445.3094 L 534.3304 447.0505 L 534.2221 447.0172 L 531.245 444.6462 L 530.4844 446.4641 L 532.6 448.3128 L 532.34 448.3358 L 532.3039 448.4587 L 529.8996 448.2052 L 529.4664 449.6903 L 529.1824 449.5904 L 527.541 449.0143 L 523.5699 450.0283 L 522.6553 451.3725 L 521.0452 450.8809 L 520.3569 450.8758 L 520.1355 451.4698 L 519.8322 451.882 L 519.5338 452.4607 L 519.3124 452.8985 L 519.0837 453.3773 L 518.8358 453.9432 L 518.4869 454.0559 L 518.2775 454.0354 L 517.9694 453.8485 L 517.76 453.9432 L 517.618 453.8997 L 516.9393 453.8613 L 516.5254 454.1276 L 516.3352 454.6192 L 516.2967 454.9597 L 515.8443 455.756 L 515.2474 456.0556 L 514.6987 455.6434 L 512.9586 458.1347 L 510.8551 461.4223 L 509.8274 462.9611 L 500.612 459.5506 L 500.1572 460.3981 L 499.4929 461.4428 L 498.5398 462.4926 L 497.4712 463.5833 L 502.2823 465.5958 L 497.8202 468.0078 L 497.5242 468.1076 L 496.5591 471.1341 L 496.3858 471.7179 L 496.0416 474.496 L 496.3617 477.7401 L 496.6939 479.3967 L 501.0404 483.2988 L 499.9189 484.9042 L 498.2438 486.8911 L 496.872 488.3557 L 494.884 490.5398 L 480.8094 480.362 L 479.3341 482.6638 L 477.9285 484.9938 L 473.8563 490.6038 L 472.0753 489.6846 L 472.2992 491.6946 L 472.4075 492.665 L 468.5687 500.098 L 462.2607 497.1663 L 461.7288 498.2826 L 461.1752 499.5142 L 467.322 502.4075 L 466.2559 504.7657 L 460.0585 501.9313 L 459.6421 502.8377 L 459.0236 504.1358 L 458.4364 505.3674 L 457.9382 506.5068 L 464.02 509.267 L 463.2065 510.2988 L 457.3846 507.6462 L 457.4953 507.4183 L 455.1151 506.558 L 453.464 505.9384 L 451.7384 505.3469 L 450.0705 504.7426 L 448.937 504.4047 L 448.7974 504.4226 L 449.1343 503.7364 L 449.8563 502.3486 L 448.5278 501.7546 L 448.6578 501.4883 L 447.6277 500.7791 L 447.6879 500.651 L 447.4352 500.5 L 446.0369 499.6499 L 444.3979 498.6667 L 442.8311 497.4377 L 444.3666 494.89 L 444.1307 495.1409 L 443.7697 495.6402 L 441.8828 495.6479 L 440.239 494.9387 L 438.4388 493.9708 L 439.7288 491.9224 L 439.7914 491.8149 L 438.2101 490.9008 L 437.0284 490.2991 L 436.4003 490.2402 L 435.5411 489.8971 L 434.7324 489.2775 L 433.0405 488.3096 L 432.9057 488.4402 L 431.2836 487.9384 L 426.3738 490.7728 L 428.718 485.5239 L 426.4653 484.1105 L 422.3762 481.8522 L 418.5591 479.6425 L 415.8804 478.201 L 415.8467 478.1293 L 411.9743 476.0604 L 407.2956 473.5717 L 405.3654 474.8596 L 404.0152 475.9759 L 403.3197 477.0616 L 402.1259 479.1509 L 401.4713 481.0482 L 400.8937 483.0172 L 400.5086 482.162 L 399.8564 481.4374 L 398.9515 481.1301 L 397.9214 481.1839 L 397.1247 481.7037 L 395.5844 483.2143 L 394.9346 483.8775 L 393.4328 479.9779 L 393.493 479.8294 L 393.7986 479.5606 L 393.842 478.5978 L 393.8034 477.9552 L 393.7385 477.7836 L 393.375 477.7247 L 392.588 477.6223 L 392.2872 477.5148 L 388.9972 476.2576 L 388.937 476.1987 L 389.5676 475.1207 L 390.5977 473.4436 L 390.1163 472.5193 L 387.3293 470.9267 L 387.2475 470.8499 L 388.5423 468.4687 L 389.931 466.2718 L 389.8877 466.2078 L 386.9948 464.6715 L 386.6675 464.1902 L 388.9996 459.9372 L 388.9442 459.8732 L 385.5387 457.9273 L 386.7541 455.7176 L 386.8119 455.5742 L 383.002 455.162 L 382.4124 453.7896 L 382.0899 453.7921 L 380.7998 453.9125 L 378.1524 453.2493 L 376.0538 452.6911 L 374.718 452.2456 L 373.5026 451.498 L 372.5592 450.8297 L 371.3943 449.9131 L 370.2126 448.2027 L 369.0261 446.3643 L 368.7301 446.0365 L 368.422 444.426 L 368.4605 442.3059 L 368.4701 440.3421 L 368.6145 437.7381 L 368.6723 434.6118 L 368.7902 432.5813 L 368.629 432.5557 L 365.4015 431.867 L 363.8299 431.3677 L 362.0008 418.9853 L 355.6735 376.3973 L 355.3462 376.5022 L 353.4786 378.5122 L 350.5111 381.7691 L 345.2451 384.4012 L 345.2138 382.8522 L 343.2331 382.3222 L 340.718 380.9754 L 341.0405 378.3202 L 341.5436 378.4277 L 341.9214 373.8599 L 337.12 372.9381 L 334.203 372.467 L 333.5821 372.7102 L 331.6206 372.1546 L 331.9046 369.8758 L 330.5039 368.1398 L 326.2608 361.9947 L 322.3306 364.8368 L 321.9335 364.4195 L 316.2175 356.6229 L 315.5147 356.4974 L 290.564 349.6943 L 290.8432 344.3148 L 290.7951 343.6004 L 290.7109 342.3432 L 290.4654 341.0579 L 288.2728 333.2894 L 286.9443 330.094 L 286.8914 329.966 L 285.2716 332.0118 L 262.9973 337.6806 L 252.2392 340.9964 L 250.5785 341.4701 L 250.9732 338.9865 L 253.3824 331.0209 L 253.3824 327.6667 L 254.4486 324.9193 L 255.8348 323.4266 L 260.2319 304.7532 L 260.5809 302.8917 L 295.351 308.4505 L 327.9864 265.4143 L 328.5159 264.7589 L 328.8721 264.2519 L 329.3558 263.6118 L 329.8733 262.4417 L 330.3258 261.3944 L 330.5977 260.4855 L 330.8697 259.9401 L 331.0959 259.4408 L 331.3486 259.1003 L 331.9864 259.0414 L 332.9178 259.0721 L 333.3245 259.218 L 333.7048 259.2462 L 334.7517 258.9261 L 335.712 258.7213 L 336.6434 258.7213 L 339.9407 258.1042 L 341.5989 257.6971 L 342.7036 257.4027 L 344.0129 256.9648 L 345.0598 256.7318 L 345.9046 256.5859 L 347.2138 256.4399 L 348.0297 255.9739 L 348.6097 255.5335 L 349.2788 255.0368 L 349.7024 254.7116 L 350.8865 254.4812 L 351.8179 254.325 L 353.3077 254.7936 L 356.7084 254.6784 L 365.0285 258.7572 L 373.8757 259.0414 L 373.6109 257.1031 L 374.5832 255.8459 L 380.6073 256.0815 L 383.0381 256.3939 L 384.4773 254.6348 L 386.4316 251.9617 L 387.5435 248.8764 L 387.8805 246.0983 L 387.1825 242.0015 L 386.0586 237.1853 L 385.4039 230.9788 L 385.7794 226.0883 L 386.5664 220.3503 L 386.9491 209.4889 L 387.6903 202.1097 L 388.2704 196.3256 L 389.3197 190.9205 L 388.0826 187.5586 L 386.8528 185.3464 L 385.7962 182.5862 L 385.2956 181.2061 L 384.8335 179.8695 L 383.8901 179.4087 L 382.73 178.8018 L 381.7577 177.8698 L 380.6915 176.3335 L 380.1837 174.7973 L 379.7192 174.0983 L 379.1175 174.0035 L 378.3763 174.0983 L 377.866 173.2124 L 377.2643 172.2803 L 376.848 171.3023 L 376.4316 169.492 L 377.2018 168.6163 L 377.0742 167.395 L 384.15 148.2402 L 382.2511 144.461 L 382.5905 142.2744 L 382.9298 140.9481 L 383.1368 140.1005 L 382.0923 133.5074 L 380.9852 132.8621 L 381.209 131.4795 L 380.9876 131.0058 L 380.4509 130.9597 L 379.8227 130.294 L 379.8347 129.3159 L 378.6266 128.4428 L 378.3233 127.0627 L 378.8696 126.6735 L 378.2848 126.2562 L 378.8239 124.5996 L 378.499 124.2027 L 378.434 122.1671 L 377.8588 121.7831 L 377.5965 121.3887 L 377.1368 121.4092 L 376.8648 120.9407 L 377.0309 120.3902 L 376.2174 120.2826 L 375.9671 119.3737 L 375.2042 119.1868 L 375.3101 118.4647 L 375.0622 118.265 L 375.3486 116.8081 L 374.2535 117.2126 L 373.505 117.3944 L 371.6903 116.6903 L 371.2643 116.4932 L 371.1199 116.3574 L 370.9924 115.5739 L 370.5303 115.5458 L 369.5965 116.0297 L 368.203 115.9939 L 367.842 116.1936 L 366.6362 117.9808 L 365.9623 119.2584 L 361.4737 114.3424 L 360.0778 112.8138 L 357.9575 121.2428 L 357.7457 121.2505 L 356.6121 121.0661 L 355.4328 120.7614 L 354.4244 120.9151 L 354.41 120.8664 L 353.8083 120.6872 L 352.6892 120.0087 L 351.5532 119.4582 L 350.215 118.8462 L 349.0237 118.5978 L 348.073 118.2522 L 347.3558 118.8974 L 346.6675 119.2124 L 345.8564 119.2124 L 344.9202 118.8974 L 344.5857 118.4033 L 344.5448 117.9833 L 344.7445 118.0576 L 345.7361 111.5464 L 340.6121 111.6206 L 339.5965 113.0212 L 342.0682 113.8789 L 339.5869 114.3757 L 339.067 113.756 L 339.0261 113.1415 L 337.9792 112.632 L 336.7445 112.5321 L 336.9347 112.253 L 336.5857 111.6616 L 336.5616 111.1725 L 337.9599 111.0291 L 338.6868 110.8704 L 339.6807 110.6348 L 340.6482 110.5273 L 341.5917 110.3045 L 342.7975 110.2021 L 343.4906 110.1176 L 344.8673 109.9717 L 345.5941 109.585 L 346.6097 109.0422 L 348.5351 96.6061 L 348.576 96.6061 L 349.0044 96.1401 L 349.1849 95.3822 L 349.7938 94.4118 L 350.1525 94.0866 L 350.2608 93.5105 L 350.1525 92.7193 L 349.8299 91.818 L 349.4738 91.2112 L 349.3727 91.1984 L 348.6843 91.1344 L 347.7505 91.3136 L 346.8913 91.457 L 346.2824 91.4929 L 345.2066 91.6363 L 345.2355 90.6146 L 345.416 89.9361 L 345.2812 89.3498 L 345.0093 88.9427 L 344.3811 88.1745 L 343.6615 87.6778 L 343.262 86.7637 L 343.262 85.6115 L 343.0261 84.933 L 342.5881 84.3927 L 341.8444 83.7808 L 341.339 82.8309 L 341.3727 82.119 L 341.2379 81.4738 L 340.8673 80.7978 L 340.3931 80.5264 L 340.1573 80.086 L 339.8877 79.4408 L 339.8203 78.2195 L 339.9214 76.9674 L 339.6856 75.9483 L 339.6711 74.6323 L 343.9094 72.3176 L 346.2126 70.7429 L 347.3606 69.9466 L 349.6663 68.395 L 350.5375 67.8035 L 355.3895 64.7438 L 357.7024 63.3048 L 358.8432 62.5751 L 361.1561 61.1387 L 363.0405 60.0249 L 363.3077 60.1452 L 364.3185 60.5114 L 365.2812 60.921 L 366.1332 61.3461 L 366.8865 62.1347 L 367.8949 62.3293 L 368.2704 62.1731 L 368.7276 61.8658 L 369.4786 61.7097 L 370.2319 62.0502 L 370.7493 62.5444 L 371.3197 62.8311 L 371.9671 63.0667 L 372.9009 63.3253 L 373.4208 63.822 L 374.8143 64.2829 L 376.7854 64.5185 L 377.7192 64.754 L 378.653 64.9358 L 380.1308 65.2994 L 381.4785 65.873 L 382.126 66.3441 L 383.3462 66.9432 L 385.6711 67.5168 L 386.9683 67.3094 L 387.9791 67.3606 L 388.3931 68.0109 L 389.4328 67.6448 L 390.3787 67.5373 L 390.7541 66.7614 L 390.6843 62.7185 L 390.8456 61.5535 L 391.4906 59.9353 L 392.6843 58.9341 L 393.9719 58.7062 L 396.9635 58.5501 L 398.0249 58.3171 L 399.0622 58.0175 L 399.9839 57.5079 L 401.0886 56.9318 L 402.3786 56.6988 L 403.7842 56.8397 L 405.9093 56.9626 Z" fill="#000000" fill-opacity="1" stroke="#000000" stroke-width="0" paint-order="fill" stroke-opacity="1" stroke-dasharray="" stroke-linecap="butt" stroke-linejoin="miter" stroke-miterlimit="10" transform="matrix(1.100000023841858,0,0,1.100000023841858,-42.50129318237305,-28.34988784790039)" clip-path="none" style="filter: url(#f1)"/>
<path d="M 405.9093 56.9626 L 408.5495 70.2539 L 412.7132 81.5813 L 412.1596 88.2334 L 412.9057 88.4357 L 414.7252 88.0465 L 417.4593 87.5728 L 418.3546 86.6459 L 419.6085 84.997 L 420.8913 84.1597 L 423.7649 83.4326 L 425.286 82.6235 L 426.5688 82.0858 L 427.5531 81.0667 L 429.221 80.36 L 431.7577 79.0439 L 435.2836 77.0673 L 439.2523 75.9304 L 443.3702 74.4633 L 445.4472 73.3008 L 446.7541 71.0707 L 449.0766 68.034 L 452.0296 70.2488 L 454.588 72.2331 L 453.9117 72.2843 L 451.8202 72.251 L 451.0381 72.5404 L 449.9382 73.3239 L 449.7938 74.0203 L 447.9791 74.3199 L 447.2884 75.1213 L 446.3425 75.7794 L 445.144 77.1646 L 444.5615 78.8058 L 444.6698 82.055 L 444.9586 84.828 L 445.5748 85.7779 L 446.3377 86.436 L 446.3377 87.4934 L 446.4532 88.9913 L 447.505 90.5609 L 448.4123 91.9486 L 449.3943 93.3722 L 450.3738 94.6858 L 450.9899 97.2052 L 451.1704 98.9566 L 451.8612 100.7464 L 452.8046 101.622 L 453.931 103.2274 L 455.1656 104.7253 L 456.2101 105.8365 L 457.18 106.3717 L 458.0032 107.4932 L 457.7601 108.5634 L 458.0032 109.5876 L 458.7781 110.7065 L 459.9406 111.828 L 460.8142 112.5577 L 461.7841 113.0954 L 461.8804 113.8252 L 461.5868 115.6738 L 462.1235 116.8209 L 462.2173 117.0385 L 462.7011 119.8166 L 463.1367 121.1813 L 463.7649 122.8354 L 464.0561 124.0542 L 463.9093 125.0272 L 464.0561 125.5136 L 465.3148 125.7108 L 466.3281 126.7836 L 467.1512 128.0024 L 467.6349 129.8536 L 468.458 133.1156 L 468.8431 134.2345 L 469.3293 135.502 L 469.4255 136.1344 L 469.9093 136.9153 L 471.1199 137.8397 L 471.5074 138.4747 L 472.2149 139.5065 L 475.7793 139.3196 L 476.2366 141.9466 L 475.5988 144.9296 L 478.7059 147.1367 L 481.7456 150.0505 L 483.4448 151.0465 L 482.9129 152.7876 L 482.5904 157.335 L 482.4821 161.7774 L 482.4893 162.9731 L 482.47 163.0653 L 482.393 163.5518 L 482.1981 164.4121 L 482.0946 165.0291 L 481.943 165.7128 L 481.6782 166.8932 L 481.3485 171.3407 L 481.3052 172.6593 L 480.304 177.3603 L 479.2137 182.0229 L 478.6602 185.1825 L 476.4436 194.4308 L 476.2222 195.3961 L 475.5771 196.9503 L 475.6518 198.0923 L 475.9261 198.822 L 477.9743 202.0354 L 477.6879 203.6203 L 476.5543 204.6931 L 477.0814 205.6072 L 477.2209 206.9873 L 477.2306 208.329 L 477.5338 209.4069 L 477.0092 210.4439 L 476.0585 210.3518 L 475.6951 213.5062 L 475.5025 213.9441 L 474.2823 215.1091 L 473.8997 217.4545 L 475.5627 217.667 L 476.109 217.8206 L 476.0898 220.0431 L 474.3617 220.7037 L 474.4556 221.1748 L 476.0609 221.354 L 476.0561 223.3717 L 475.9767 225.3023 L 475.9622 225.3919 L 473.6084 225.164 L 472.9297 225.7555 L 472.819 226.0678 L 473.156 226.7259 L 473.322 226.9589 L 473.659 227.2149 L 473.3293 228.2032 L 473.245 228.7205 L 473.2017 229.2428 L 472.6939 229.8727 L 472.4075 230.1543 L 472.1548 230.3207 L 471.6229 230.797 L 471.0501 231.2425 L 470.6 231.9236 L 470.4075 232.6789 L 470.5591 233.4112 L 470.7396 233.8311 L 471.2474 235.2573 L 472.9634 239.4206 L 473.5098 239.7074 L 473.9791 239.7432 L 474.1451 239.6869 L 474.5639 239.2516 L 474.9009 239.2619 L 475.2859 239.4283 L 476.1235 240.3782 L 476.4195 240.5088 L 476.446 240.6138 L 476.5783 243.4277 L 476.3377 243.6095 L 476.1692 244.0781 L 476.1355 244.9717 L 476.2222 245.6527 L 476.6674 245.9267 L 477.3846 246.3748 L 478.0802 246.8946 L 478.677 247.5833 L 478.8936 248.0852 L 479.3509 248.9225 L 479.3341 249.3526 L 477.659 249.6189 L 477.7962 249.9236 L 478.4388 250.3563 L 478.653 251.1244 L 478.7637 252.4021 L 478.8816 254.2559 L 478.9875 255.2775 L 479.2113 256.6806 L 479.2402 260.168 L 478.6385 263.0946 L 478.511 263.5375 L 478.3882 264.2852 L 478.3329 266.1031 L 478.2486 269.7261 L 478.3569 269.8721 L 478.7252 270.0052 L 478.8479 270.2971 L 479.6614 271.649 L 480.6313 271.6926 L 480.6554 271.8001 L 480.7733 273.152 L 480.1812 273.6872 L 479.9454 274.2146 L 479.8323 274.0072 L 478.7492 275.459 L 477.8058 275.6178 L 477.7023 276.7111 L 478.1331 277.0516 L 478.0729 277.7711 L 478.1066 277.9324 L 477.014 277.8863 L 476.6698 277.8377 L 476.1379 277.5714 L 475.1271 277.597 L 475.5892 279.0539 L 476.2366 278.9387 L 476.9129 279.1512 L 476.7468 280.9435 L 476.4941 283.2018 L 476.5206 283.4707 L 476.6193 283.5526 L 476.8984 283.5424 L 477.5747 283.4348 L 477.9141 283.4912 L 477.9887 284.0698 L 478.2222 285.9389 L 478.5783 288.6454 L 478.6024 288.9961 L 477.9839 289.0115 L 477.2378 289.0115 L 476.8359 289.5441 L 477.0188 290.663 L 477.5988 291.2186 L 477.6542 291.449 L 477.6036 292.2095 L 477.18 292.3887 L 476.4604 292.3068 L 476.1885 293.1082 L 475.3629 294.1836 L 473.9935 295.7301 L 473.3509 296.2243 L 472.7829 297.0257 L 472.937 297.3458 L 473.6999 299.8294 L 474.4604 302.3156 L 475.1728 304.2257 L 475.31 304.4562 L 476.15 306.7196 L 476.9923 308.9805 L 477.4953 310.2095 L 480.6578 312.1426 L 480.7998 312.2041 L 484.3738 314.2217 L 487.8708 316.3572 L 487.8804 316.9256 L 489.1463 317.7756 L 491.0525 319.1557 L 492.1187 319.5014 L 492.8431 319.4246 L 494.5591 320.7304 L 494.9779 321.6496 L 496.896 322.7148 L 498.2197 323.3805 L 499.9574 324.1793 L 501.5073 324.9398 L 502.6409 325.7003 L 503.5097 326.4991 L 504.263 327.1444 L 504.9442 327.9048 L 505.5868 328.6294 L 506.4941 329.2158 L 507.5964 329.9993 L 510.2534 331.9554 L 515.955 336.0624 L 522.9177 341.022 L 522.7227 341.5059 L 522.405 342.2101 L 522.523 345.7179 L 519.9405 345.0138 L 516.186 343.8564 L 512.097 342.5865 L 511.4255 345.321 L 510.3232 349.6456 L 509.3725 352.8104 L 509.026 354.3261 L 508.2197 357.3091 L 507.9285 358.8581 L 507.8587 358.9811 L 511.7817 360.1589 L 520.9056 363.088 L 520.4315 363.4926 L 518.5422 364.9367 L 522.1162 368.8132 L 522.3208 373.0533 L 524.961 375.7648 L 529.8852 380.4838 L 531.9333 382.166 L 539.3388 386.3984 L 542.5278 378.5967 L 543.4303 377.0835 L 544.5783 374.8251 L 545.5145 372.9458 L 546.3834 370.5543 L 547.3196 368.0348 L 548.0608 365.1005 L 555.038 372.1034 L 565.5843 382.0431 L 577.2305 393.4345 L 581.3942 398.1099 L 581.9621 398.6271 L 582.7179 399.3697 L 583.476 400.1071 L 584.2389 400.8445 L 584.997 401.5819 L 585.7624 402.3168 L 586.5253 403.0516 L 587.281 403.7941 L 588.0464 404.5264 L 588.8093 405.2638 L 589.5674 406.0038 L 590.3256 406.7438 L 591.0837 407.4838 L 591.8466 408.2186 L 592.612 408.956 L 593.3725 409.6934 L 594.1378 410.4283 L 594.896 411.1657 L 595.6613 411.898 L 596.4194 412.6379 L 597.1775 413.3779 L 597.9381 414.1179 L 598.701 414.8527 L 599.4471 415.5748 L 593.9453 422.0911 L 594.47 422.5495 L 589.0572 428.8687 L 585.2257 433.6618 L 577.926 442.434 L 561.4303 461.4709 L 560.7492 461.092 L 559.7648 460.5441 L 543.5217 451.8001 L 543.0596 451.183 L 541.8972 450.8451 L 537.0332 449.4086 L 536.9369 449.2909 L 537.8442 447.1836 L 535.0645 445.3094 L 534.3304 447.0505 L 534.2221 447.0172 L 531.245 444.6462 L 530.4844 446.4641 L 532.6 448.3128 L 532.34 448.3358 L 532.3039 448.4587 L 529.8996 448.2052 L 529.4664 449.6903 L 529.1824 449.5904 L 527.541 449.0143 L 523.5699 450.0283 L 522.6553 451.3725 L 521.0452 450.8809 L 520.3569 450.8758 L 520.1355 451.4698 L 519.8322 451.882 L 519.5338 452.4607 L 519.3124 452.8985 L 519.0837 453.3773 L 518.8358 453.9432 L 518.4869 454.0559 L 518.2775 454.0354 L 517.9694 453.8485 L 517.76 453.9432 L 517.618 453.8997 L 516.9393 453.8613 L 516.5254 454.1276 L 516.3352 454.6192 L 516.2967 454.9597 L 515.8443 455.756 L 515.2474 456.0556 L 514.6987 455.6434 L 512.9586 458.1347 L 510.8551 461.4223 L 509.8274 462.9611 L 500.612 459.5506 L 500.1572 460.3981 L 499.4929 461.4428 L 498.5398 462.4926 L 497.4712 463.5833 L 502.2823 465.5958 L 497.8202 468.0078 L 497.5242 468.1076 L 496.5591 471.1341 L 496.3858 471.7179 L 496.0416 474.496 L 496.3617 477.7401 L 496.6939 479.3967 L 501.0404 483.2988 L 499.9189 484.9042 L 498.2438 486.8911 L 496.872 488.3557 L 494.884 490.5398 L 480.8094 480.362 L 479.3341 482.6638 L 477.9285 484.9938 L 473.8563 490.6038 L 472.0753 489.6846 L 472.2992 491.6946 L 472.4075 492.665 L 468.5687 500.098 L 462.2607 497.1663 L 461.7288 498.2826 L 461.1752 499.5142 L 467.322 502.4075 L 466.2559 504.7657 L 460.0585 501.9313 L 459.6421 502.8377 L 459.0236 504.1358 L 458.4364 505.3674 L 457.9382 506.5068 L 464.02 509.267 L 463.2065 510.2988 L 457.3846 507.6462 L 457.4953 507.4183 L 455.1151 506.558 L 453.464 505.9384 L 451.7384 505.3469 L 450.0705 504.7426 L 448.937 504.4047 L 448.7974 504.4226 L 449.1343 503.7364 L 449.8563 502.3486 L 448.5278 501.7546 L 448.6578 501.4883 L 447.6277 500.7791 L 447.6879 500.651 L 447.4352 500.5 L 446.0369 499.6499 L 444.3979 498.6667 L 442.8311 497.4377 L 444.3666 494.89 L 444.1307 495.1409 L 443.7697 495.6402 L 441.8828 495.6479 L 440.239 494.9387 L 438.4388 493.9708 L 439.7288 491.9224 L 439.7914 491.8149 L 438.2101 490.9008 L 437.0284 490.2991 L 436.4003 490.2402 L 435.5411 489.8971 L 434.7324 489.2775 L 433.0405 488.3096 L 432.9057 488.4402 L 431.2836 487.9384 L 426.3738 490.7728 L 428.718 485.5239 L 426.4653 484.1105 L 422.3762 481.8522 L 418.5591 479.6425 L 415.8804 478.201 L 415.8467 478.1293 L 411.9743 476.0604 L 407.2956 473.5717 L 405.3654 474.8596 L 404.0152 475.9759 L 403.3197 477.0616 L 402.1259 479.1509 L 401.4713 481.0482 L 400.8937 483.0172 L 400.5086 482.162 L 399.8564 481.4374 L 398.9515 481.1301 L 397.9214 481.1839 L 397.1247 481.7037 L 395.5844 483.2143 L 394.9346 483.8775 L 393.4328 479.9779 L 393.493 479.8294 L 393.7986 479.5606 L 393.842 478.5978 L 393.8034 477.9552 L 393.7385 477.7836 L 393.375 477.7247 L 392.588 477.6223 L 392.2872 477.5148 L 388.9972 476.2576 L 388.937 476.1987 L 389.5676 475.1207 L 390.5977 473.4436 L 390.1163 472.5193 L 387.3293 470.9267 L 387.2475 470.8499 L 388.5423 468.4687 L 389.931 466.2718 L 389.8877 466.2078 L 386.9948 464.6715 L 386.6675 464.1902 L 388.9996 459.9372 L 388.9442 459.8732 L 385.5387 457.9273 L 386.7541 455.7176 L 386.8119 455.5742 L 383.002 455.162 L 382.4124 453.7896 L 382.0899 453.7921 L 380.7998 453.9125 L 378.1524 453.2493 L 376.0538 452.6911 L 374.718 452.2456 L 373.5026 451.498 L 372.5592 450.8297 L 371.3943 449.9131 L 370.2126 448.2027 L 369.0261 446.3643 L 368.7301 446.0365 L 368.422 444.426 L 368.4605 442.3059 L 368.4701 440.3421 L 368.6145 437.7381 L 368.6723 434.6118 L 368.7902 432.5813 L 368.629 432.5557 L 365.4015 431.867 L 363.8299 431.3677 L 362.0008 418.9853 L 355.6735 376.3973 L 355.3462 376.5022 L 353.4786 378.5122 L 350.5111 381.7691 L 345.2451 384.4012 L 345.2138 382.8522 L 343.2331 382.3222 L 340.718 380.9754 L 341.0405 378.3202 L 341.5436 378.4277 L 341.9214 373.8599 L 337.12 372.9381 L 334.203 372.467 L 333.5821 372.7102 L 331.6206 372.1546 L 331.9046 369.8758 L 330.5039 368.1398 L 326.2608 361.9947 L 322.3306 364.8368 L 321.9335 364.4195 L 316.2175 356.6229 L 315.5147 356.4974 L 290.564 349.6943 L 290.8432 344.3148 L 290.7951 343.6004 L 290.7109 342.3432 L 290.4654 341.0579 L 288.2728 333.2894 L 286.9443 330.094 L 286.8914 329.966 L 285.2716 332.0118 L 262.9973 337.6806 L 252.2392 340.9964 L 250.5785 341.4701 L 250.9732 338.9865 L 253.3824 331.0209 L 253.3824 327.6667 L 254.4486 324.9193 L 255.8348 323.4266 L 260.2319 304.7532 L 260.5809 302.8917 L 295.351 308.4505 L 327.9864 265.4143 L 328.5159 264.7589 L 328.8721 264.2519 L 329.3558 263.6118 L 329.8733 262.4417 L 330.3258 261.3944 L 330.5977 260.4855 L 330.8697 259.9401 L 331.0959 259.4408 L 331.3486 259.1003 L 331.9864 259.0414 L 332.9178 259.0721 L 333.3245 259.218 L 333.7048 259.2462 L 334.7517 258.9261 L 335.712 258.7213 L 336.6434 258.7213 L 339.9407 258.1042 L 341.5989 257.6971 L 342.7036 257.4027 L 344.0129 256.9648 L 345.0598 256.7318 L 345.9046 256.5859 L 347.2138 256.4399 L 348.0297 255.9739 L 348.6097 255.5335 L 349.2788 255.0368 L 349.7024 254.7116 L 350.8865 254.4812 L 351.8179 254.325 L 353.3077 254.7936 L 356.7084 254.6784 L 365.0285 258.7572 L 373.8757 259.0414 L 373.6109 257.1031 L 374.5832 255.8459 L 380.6073 256.0815 L 383.0381 256.3939 L 384.4773 254.6348 L 386.4316 251.9617 L 387.5435 248.8764 L 387.8805 246.0983 L 387.1825 242.0015 L 386.0586 237.1853 L 385.4039 230.9788 L 385.7794 226.0883 L 386.5664 220.3503 L 386.9491 209.4889 L 387.6903 202.1097 L 388.2704 196.3256 L 389.3197 190.9205 L 388.0826 187.5586 L 386.8528 185.3464 L 385.7962 182.5862 L 385.2956 181.2061 L 384.8335 179.8695 L 383.8901 179.4087 L 382.73 178.8018 L 381.7577 177.8698 L 380.6915 176.3335 L 380.1837 174.7973 L 379.7192 174.0983 L 379.1175 174.0035 L 378.3763 174.0983 L 377.866 173.2124 L 377.2643 172.2803 L 376.848 171.3023 L 376.4316 169.492 L 377.2018 168.6163 L 377.0742 167.395 L 384.15 148.2402 L 382.2511 144.461 L 382.5905 142.2744 L 382.9298 140.9481 L 383.1368 140.1005 L 382.0923 133.5074 L 380.9852 132.8621 L 381.209 131.4795 L 380.9876 131.0058 L 380.4509 130.9597 L 379.8227 130.294 L 379.8347 129.3159 L 378.6266 128.4428 L 378.3233 127.0627 L 378.8696 126.6735 L 378.2848 126.2562 L 378.8239 124.5996 L 378.499 124.2027 L 378.434 122.1671 L 377.8588 121.7831 L 377.5965 121.3887 L 377.1368 121.4092 L 376.8648 120.9407 L 377.0309 120.3902 L 376.2174 120.2826 L 375.9671 119.3737 L 375.2042 119.1868 L 375.3101 118.4647 L 375.0622 118.265 L 375.3486 116.8081 L 374.2535 117.2126 L 373.505 117.3944 L 371.6903 116.6903 L 371.2643 116.4932 L 371.1199 116.3574 L 370.9924 115.5739 L 370.5303 115.5458 L 369.5965 116.0297 L 368.203 115.9939 L 367.842 116.1936 L 366.6362 117.9808 L 365.9623 119.2584 L 361.4737 114.3424 L 360.0778 112.8138 L 357.9575 121.2428 L 357.7457 121.2505 L 356.6121 121.0661 L 355.4328 120.7614 L 354.4244 120.9151 L 354.41 120.8664 L 353.8083 120.6872 L 352.6892 120.0087 L 351.5532 119.4582 L 350.215 118.8462 L 349.0237 118.5978 L 348.073 118.2522 L 347.3558 118.8974 L 346.6675 119.2124 L 345.8564 119.2124 L 344.9202 118.8974 L 344.5857 118.4033 L 344.5448 117.9833 L 344.7445 118.0576 L 345.7361 111.5464 L 340.6121 111.6206 L 339.5965 113.0212 L 342.0682 113.8789 L 339.5869 114.3757 L 339.067 113.756 L 339.0261 113.1415 L 337.9792 112.632 L 336.7445 112.5321 L 336.9347 112.253 L 336.5857 111.6616 L 336.5616 111.1725 L 337.9599 111.0291 L 338.6868 110.8704 L 339.6807 110.6348 L 340.6482 110.5273 L 341.5917 110.3045 L 342.7975 110.2021 L 343.4906 110.1176 L 344.8673 109.9717 L 345.5941 109.585 L 346.6097 109.0422 L 348.5351 96.6061 L 348.576 96.6061 L 349.0044 96.1401 L 349.1849 95.3822 L 349.7938 94.4118 L 350.1525 94.0866 L 350.2608 93.5105 L 350.1525 92.7193 L 349.8299 91.818 L 349.4738 91.2112 L 349.3727 91.1984 L 348.6843 91.1344 L 347.7505 91.3136 L 346.8913 91.457 L 346.2824 91.4929 L 345.2066 91.6363 L 345.2355 90.6146 L 345.416 89.9361 L 345.2812 89.3498 L 345.0093 88.9427 L 344.3811 88.1745 L 343.6615 87.6778 L 343.262 86.7637 L 343.262 85.6115 L 343.0261 84.933 L 342.5881 84.3927 L 341.8444 83.7808 L 341.339 82.8309 L 341.3727 82.119 L 341.2379 81.4738 L 340.8673 80.7978 L 340.3931 80.5264 L 340.1573 80.086 L 339.8877 79.4408 L 339.8203 78.2195 L 339.9214 76.9674 L 339.6856 75.9483 L 339.6711 74.6323 L 343.9094 72.3176 L 346.2126 70.7429 L 347.3606 69.9466 L 349.6663 68.395 L 350.5375 67.8035 L 355.3895 64.7438 L 357.7024 63.3048 L 358.8432 62.5751 L 361.1561 61.1387 L 363.0405 60.0249 L 363.3077 60.1452 L 364.3185 60.5114 L 365.2812 60.921 L 366.1332 61.3461 L 366.8865 62.1347 L 367.8949 62.3293 L 368.2704 62.1731 L 368.7276 61.8658 L 369.4786 61.7097 L 370.2319 62.0502 L 370.7493 62.5444 L 371.3197 62.8311 L 371.9671 63.0667 L 372.9009 63.3253 L 373.4208 63.822 L 374.8143 64.2829 L 376.7854 64.5185 L 377.7192 64.754 L 378.653 64.9358 L 380.1308 65.2994 L 381.4785 65.873 L 382.126 66.3441 L 383.3462 66.9432 L 385.6711 67.5168 L 386.9683 67.3094 L 387.9791 67.3606 L 388.3931 68.0109 L 389.4328 67.6448 L 390.3787 67.5373 L 390.7541 66.7614 L 390.6843 62.7185 L 390.8456 61.5535 L 391.4906 59.9353 L 392.6843 58.9341 L 393.9719 58.7062 L 396.9635 58.5501 L 398.0249 58.3171 L 399.0622 58.0175 L 399.9839 57.5079 L 401.0886 56.9318 L 402.3786 56.6988 L 403.7842 56.8397 L 405.9093 56.9626 Z" fill="#f4f6f7" fill-opacity="1" stroke="#000000" stroke-width="0.4545454446934474" paint-order="fill" stroke-opacity="1" stroke-dasharray="" stroke-linecap="butt" stroke-linejoin="miter" stroke-miterlimit="10" transform="matrix(1.100000023841858,0,0,1.100000023841858,-42.50129318237305,-28.34988784790039)" clip-path="none"/>
<path fill="rgba(0,0,0,0)" fill-opacity="1" stroke="#ccc" stroke-width="0" paint-order="fill" stroke-opacity="1" stroke-dasharray="" stroke-linecap="butt" stroke-linejoin="miter" stroke-miterlimit="10" transform="matrix(1,0,0,1,15,10)" clip-path="none"/>
<text transform="matrix(1,0,0,1,15,10)" fill="#333" fill-opacity="1" stroke="none" clip-path="none" style="font: bolder 16px Tahoma;"><tspan dominant-baseline="middle" text-anchor="start" x="0" y="8">Tolcayuca</tspan></text><defs><filter id="f1" x="-100%" y="-100%" width="1000%" height="1000%"><feOffset result="offOut" in="SourceGraphic" dx="-9.799999999999999" dy="9.799999999999999"></feOffset><feColorMatrix result="matrixOut" in="offOut" type="matrix" values="0.2 0 0 0 0 0 0.2 0 0 0 0 0 0.2 0 0 0 0 0 1 0"></feColorMatrix><feGaussianBlur result="blurOut" in="matrixOut" stdDeviation="8"></feGaussianBlur><feBlend in="SourceGraphic" in2="blurOut" mode="normal"></feBlend></filter></defs>
<text x="700" y="552.66666666667" font-size="11">tools.paintmaps.com</text>
</svg>